<?xml version="1.0" standalone="no"?>
<!DOCTYPE svg PUBLIC "-//W3C//DTD SVG 20010904//EN"
 "http://www.w3.org/TR/2001/REC-SVG-20010904/DTD/svg10.dtd">
<svg version="1.0" xmlns="http://www.w3.org/2000/svg"
 width="1450.000000pt" height="1600.000000pt" viewBox="0 0 1450.000000 1600.000000"
 preserveAspectRatio="xMidYMid meet">
<metadata>
Created by potrace 1.16, written by Peter Selinger 2001-2019
</metadata>
<g transform="translate(0.000000,1600.000000) scale(0.100000,-0.100000)"
fill="#000000" stroke="none">
<path d="M8537 15873 c-4 -3 -8 -31 -9 -62 -1 -38 -2 -45 -5 -21 -7 67 -15 66
-39 -5 -12 -38 -23 -79 -24 -90 0 -11 -5 -27 -11 -35 -8 -11 -9 1 -5 44 7 63
-3 86 -35 86 -22 0 -39 -36 -39 -80 0 -29 -48 -80 -75 -80 -7 0 -15 -5 -17
-12 -3 -9 -12 -9 -37 1 l-32 14 21 22 c12 13 29 21 39 18 23 -6 35 22 21 48
-15 27 -55 24 -96 -7 -37 -29 -118 -143 -148 -212 -19 -43 -38 -50 -44 -18 -2
11 4 19 17 23 14 3 21 13 21 29 0 20 -5 24 -30 24 -17 0 -33 -7 -39 -17 -23
-40 -10 14 18 73 26 55 61 95 94 107 23 9 -10 30 -36 23 -46 -11 -92 -69 -126
-159 -10 -24 -13 -26 -36 -15 -15 7 -28 24 -33 42 -9 34 -39 44 -34 11 10 -63
12 -224 4 -245 l-9 -25 -18 35 c-9 19 -35 59 -57 89 -44 59 -44 62 25 83 26 8
37 17 37 30 0 17 -5 19 -32 13 -18 -4 -49 -14 -68 -23 -35 -17 -35 -17 -84 16
-62 42 -112 42 -135 0 -21 -36 -7 -47 24 -18 22 20 27 21 54 10 16 -6 37 -20
46 -30 16 -18 15 -21 -19 -62 -20 -23 -48 -66 -62 -96 -14 -30 -28 -52 -30
-49 -3 3 -12 31 -21 63 -20 78 -52 139 -65 126 -7 -7 -3 -28 11 -67 12 -32 20
-58 19 -59 -38 -18 -73 -24 -80 -13 -12 18 -38 -19 -38 -54 0 -29 -9 -80 -36
-209 -14 -67 -19 -75 -39 -75 -21 0 -26 9 -44 89 -24 102 -73 208 -109 237
-31 24 -74 25 -95 1 -32 -35 -17 -54 23 -30 29 18 50 2 82 -63 24 -48 63 -178
56 -184 -2 -1 -20 -5 -40 -9 l-37 -7 -23 78 c-24 76 -25 78 -54 75 -16 -2 -39
-10 -51 -17 -19 -13 -26 -13 -56 0 -33 14 -47 12 -47 -7 0 -4 24 -19 54 -32
63 -28 130 -93 146 -140 10 -31 7 -40 -51 -136 -33 -57 -65 -115 -71 -129 -10
-25 -11 -25 -18 -6 -15 36 -11 64 20 132 45 98 38 129 -12 51 l-27 -42 -6 29
c-25 111 -50 187 -62 192 -22 9 -23 1 -8 -57 8 -30 20 -98 26 -150 11 -91 10
-97 -14 -154 -25 -61 -41 -62 -39 -3 0 20 -5 31 -18 34 -20 5 -35 32 -78 138
-32 79 -77 155 -92 155 -14 0 -13 -2 15 -52 27 -49 68 -159 61 -165 -2 -3 -13
0 -24 6 -12 6 -29 11 -38 11 -10 0 -32 14 -49 30 -35 34 -84 46 -139 36 -58
-11 -46 -34 14 -28 37 3 57 0 77 -13 l27 -18 -37 -18 c-36 -19 -53 -36 -44
-45 2 -3 23 5 45 16 23 12 46 19 51 15 6 -3 17 -28 25 -56 14 -47 14 -52 -10
-116 -14 -37 -32 -72 -41 -78 -9 -7 -13 -17 -9 -24 9 -14 -13 -83 -24 -76 -5
3 -18 -8 -30 -25 l-22 -30 -24 47 c-22 45 -23 53 -14 133 13 114 13 130 -5
130 -8 0 -28 -18 -46 -40 -18 -22 -35 -37 -39 -35 -4 3 -26 -32 -48 -77 l-39
-82 -5 43 c-3 39 1 51 43 110 25 36 54 72 63 80 20 16 21 31 2 31 -7 0 -37
-25 -65 -55 -29 -30 -54 -55 -57 -55 -2 0 -4 11 -4 25 0 14 -3 25 -8 25 -4 0
-6 -17 -4 -38 3 -30 -3 -49 -28 -88 -22 -34 -30 -41 -27 -24 16 71 19 110 8
110 -17 0 -28 -36 -57 -190 -23 -124 -29 -140 -46 -140 -11 0 -31 -9 -45 -20
l-26 -20 -34 54 -34 55 45 88 c26 53 54 94 68 101 13 7 15 10 4 7 -17 -5 -17
-3 3 30 23 40 26 55 11 55 -6 0 -23 -21 -38 -47 -15 -27 -53 -74 -85 -106
l-57 -58 -24 28 c-31 36 -44 23 -23 -22 9 -20 17 -40 17 -46 0 -23 -21 6 -65
89 -25 48 -54 98 -65 112 -33 44 -35 11 -2 -55 l32 -65 -35 -1 c-19 -1 -39 -2
-44 -3 -5 -1 -46 43 -91 97 -45 53 -85 97 -90 97 -22 0 -16 -20 21 -65 56 -69
104 -139 91 -131 -6 4 -26 27 -43 51 -18 25 -40 45 -49 45 -16 0 -120 101
-120 116 0 4 8 13 18 21 15 13 12 14 -30 9 -44 -5 -49 -3 -70 24 -43 59 -75
25 -34 -37 14 -21 36 -64 50 -95 l25 -57 -28 -20 -29 -21 -40 68 c-22 37 -58
87 -80 112 -33 37 -43 43 -54 32 -10 -10 -5 -27 31 -93 24 -44 40 -83 36 -87
-4 -4 -15 4 -24 17 -57 86 -73 79 -44 -19 19 -68 20 -70 2 -70 -11 0 -19 6
-19 14 0 8 -8 21 -19 28 -10 7 -20 22 -22 32 -7 32 -35 43 -57 23 -19 -17 -20
-17 -26 17 -10 51 -56 62 -56 13 -1 -18 -3 -16 -15 11 -16 37 -25 39 -50 12
-21 -23 -45 -26 -45 -6 0 37 -22 22 -50 -33 -30 -61 -42 -100 -14 -48 19 35
30 34 43 -5 12 -41 31 -196 31 -261 0 -48 -13 -87 -29 -87 -5 0 -11 34 -15 77
-10 105 -16 133 -32 133 -11 0 -12 -23 -7 -115 6 -112 6 -115 -18 -134 -30
-26 -38 -26 -32 -2 3 13 -2 23 -15 30 -12 6 -24 21 -27 32 -14 43 -85 130 -85
104 0 -2 15 -33 34 -67 30 -56 34 -69 29 -115 -3 -29 -8 -53 -12 -53 -3 1 -26
28 -51 61 -53 72 -87 93 -124 79 -19 -7 -26 -17 -26 -35 0 -22 4 -25 39 -25
34 0 45 -6 75 -42 20 -23 36 -47 36 -53 0 -11 -58 -50 -66 -43 -2 2 1 20 6 39
6 18 10 37 10 41 0 15 -23 8 -54 -16 l-31 -23 -33 56 c-40 68 -71 92 -126 98
-32 4 -47 0 -66 -16 -20 -16 -22 -20 -8 -21 9 0 20 5 23 10 12 20 54 9 85 -21
32 -33 90 -137 90 -164 0 -8 -4 -15 -10 -15 -5 0 -10 4 -10 9 0 16 -103 142
-113 138 -15 -5 -15 -62 0 -142 7 -38 13 -73 13 -77 0 -7 -72 -48 -84 -48 -3
0 -3 7 0 15 4 10 0 15 -15 15 -27 0 -41 29 -41 87 0 46 -12 73 -32 73 -10 0
-78 -138 -78 -157 0 -24 -15 -13 -35 25 -12 22 -29 38 -42 40 -18 3 -23 -4
-32 -48 -6 -28 -14 -75 -17 -105 -4 -30 -10 -55 -14 -55 -17 0 -58 69 -74 123
-10 36 -22 57 -29 54 -16 -5 -21 -63 -9 -96 6 -14 13 -51 17 -81 5 -44 4 -53
-6 -42 -18 17 -32 15 -25 -3 3 -9 0 -15 -8 -15 -8 0 -29 26 -48 57 -36 61 -63
77 -84 48 -11 -15 -14 -14 -28 12 -21 41 -44 59 -58 45 -8 -8 -6 -28 6 -72 10
-34 15 -64 12 -67 -14 -14 -37 12 -72 77 -20 39 -47 79 -59 88 -11 9 -36 45
-55 80 -40 76 -75 115 -98 110 -25 -5 -22 -43 3 -43 16 0 25 -16 47 -80 15
-44 27 -84 27 -90 1 -5 -34 43 -76 106 -142 208 -213 292 -213 249 0 -5 27
-47 61 -92 92 -124 231 -369 217 -383 -8 -8 -26 12 -61 72 -21 34 -58 89 -83
123 -60 82 -72 72 -55 -46 7 -47 10 -88 8 -91 -3 -2 -27 26 -53 64 -94 132
-157 204 -179 201 -11 -1 -49 16 -84 40 -35 23 -67 42 -72 42 -22 0 -3 -21 75
-83 64 -51 87 -76 97 -104 6 -21 20 -55 31 -76 11 -22 18 -41 15 -43 -2 -2
-21 10 -43 27 -39 31 -125 79 -143 79 -21 0 -18 -33 10 -100 17 -40 28 -74 26
-77 -3 -2 -25 14 -49 38 -62 61 -138 119 -154 119 -8 0 -17 -7 -20 -15 -4 -8
-12 -15 -20 -15 -17 0 -18 -24 -3 -51 9 -18 7 -18 -28 4 -21 14 -66 38 -98 55
-33 17 -76 46 -94 66 -40 41 -61 48 -37 11 l16 -24 -42 15 c-60 21 -71 4 -28
-41 40 -41 38 -42 -27 -13 -46 20 -123 31 -123 17 0 -4 12 -10 26 -13 18 -5
24 -12 20 -22 -3 -9 -6 -26 -6 -39 0 -22 -3 -23 -38 -18 -20 3 -80 27 -134 54
-102 52 -108 54 -108 40 0 -5 30 -26 68 -47 97 -53 96 -52 62 -80 -16 -14 -32
-34 -35 -44 -5 -16 -10 -18 -26 -10 -25 14 -38 -13 -18 -37 13 -15 38 -93 39
-120 0 -7 -25 3 -57 22 -61 37 -83 43 -83 23 1 -19 44 -65 67 -72 11 -4 27
-14 36 -24 15 -16 9 -17 -111 -17 -114 0 -127 -2 -127 -17 0 -16 15 -18 130
-22 172 -5 178 -7 193 -89 19 -101 18 -104 -23 -68 -36 31 -65 40 -65 20 0 -6
17 -31 39 -57 57 -69 74 -109 79 -188 l4 -71 -75 5 c-58 3 -91 0 -145 -17 -79
-24 -114 -26 -145 -9 -12 6 -72 59 -133 117 -105 101 -281 237 -292 226 -3 -3
-3 -6 -1 -8 2 -2 50 -38 105 -80 119 -91 236 -210 285 -290 19 -31 41 -57 49
-57 8 0 40 7 70 15 68 18 156 20 163 3 4 -10 8 -10 15 1 12 16 92 6 92 -12 0
-7 -9 -82 -19 -167 -11 -85 -23 -182 -26 -216 -6 -59 -7 -61 -68 -109 -34 -28
-102 -90 -152 -140 -74 -74 -108 -99 -191 -142 -56 -29 -114 -53 -130 -53 -34
0 -89 -24 -158 -68 -63 -40 -129 -51 -156 -27 -26 24 -25 31 10 110 16 37 30
72 30 79 0 6 -12 25 -28 42 -32 36 -50 70 -54 104 -3 21 -9 26 -44 30 -22 3
-53 16 -68 27 -15 12 -42 27 -61 33 -18 6 -41 22 -49 36 -26 38 -72 32 -148
-19 -73 -49 -121 -115 -144 -194 -15 -51 -15 -58 1 -99 22 -57 60 -88 175
-142 107 -50 130 -66 130 -95 0 -10 -41 -61 -94 -115 -104 -108 -132 -154
-141 -233 -18 -153 -67 -299 -143 -428 -24 -41 -70 -133 -103 -205 -77 -168
-155 -284 -228 -339 -44 -34 -59 -52 -70 -87 -7 -25 -22 -62 -32 -82 -23 -46
-24 -66 -2 -90 14 -16 17 -45 18 -191 2 -177 19 -321 65 -527 29 -133 59 -229
160 -510 111 -312 136 -398 325 -1130 86 -333 159 -607 161 -609 18 -18 3 55
-81 390 -123 493 -261 988 -335 1204 -32 94 -85 249 -118 345 -69 201 -91 288
-128 490 -27 154 -41 371 -30 461 7 52 9 55 59 87 30 18 65 32 83 32 38 0 43
6 78 97 l28 73 329 187 c181 104 371 218 422 254 l92 66 21 -51 c52 -128 119
-241 180 -303 81 -83 136 -108 221 -100 34 4 72 11 84 18 12 6 46 12 78 13 31
1 77 11 104 21 41 17 51 18 80 6 40 -16 42 -16 99 0 26 7 51 10 54 6 4 -4 2
-53 -4 -110 -15 -129 -9 -154 98 -402 86 -202 114 -281 125 -363 7 -53 7 -54
-14 -43 -18 10 -21 9 -21 -10 0 -12 7 -30 15 -39 9 -10 18 -53 24 -121 5 -57
15 -116 22 -132 15 -32 70 -70 92 -62 10 5 21 -8 37 -40 32 -67 59 -82 124
-67 28 6 60 14 72 17 20 6 19 -2 -28 -256 l-49 -263 -113 -141 c-247 -305
-456 -541 -797 -896 -108 -113 -198 -212 -199 -220 -7 -47 1 -60 47 -81 113
-48 239 -105 399 -179 146 -67 185 -81 263 -93 51 -7 93 -15 95 -17 2 -2 -38
-223 -88 -491 -95 -507 -96 -511 -148 -530 -13 -5 -16 -17 -14 -55 2 -26 6
-56 11 -65 4 -10 3 -18 -2 -18 -5 0 -15 -23 -22 -51 -12 -45 -11 -52 4 -69 19
-21 14 -35 -21 -63 -32 -25 -61 -76 -69 -119 -4 -21 -10 -38 -12 -38 -3 0 -21
9 -39 21 -25 15 -47 20 -84 18 -48 -3 -52 -1 -71 32 -12 19 -47 61 -79 94 -52
55 -58 65 -64 115 -6 49 -5 53 8 36 14 -17 16 -14 22 35 6 47 8 50 17 28 9
-23 10 -22 18 16 14 64 19 72 29 56 5 -9 12 6 19 45 7 32 19 89 28 126 24 104
5 168 -77 261 -59 67 -59 67 -215 93 -42 7 -85 -23 -132 -90 -21 -30 -59 -82
-85 -115 -50 -66 -85 -170 -60 -179 7 -2 12 -17 12 -33 0 -23 -6 -32 -27 -40
-72 -27 -141 -112 -184 -228 -18 -47 -40 -81 -84 -128 -55 -58 -64 -63 -102
-63 -32 0 -73 -16 -170 -65 -107 -55 -136 -65 -178 -65 -64 0 -132 -33 -163
-80 -20 -30 -22 -42 -16 -85 3 -27 10 -51 15 -53 5 -2 9 -10 9 -17 0 -8 8 -21
17 -31 9 -9 17 -28 18 -43 0 -23 4 -26 42 -29 36 -3 47 2 82 34 24 21 41 45
41 58 0 12 9 27 20 34 12 7 25 24 30 37 9 24 11 25 133 24 186 -2 224 16 326
149 32 42 68 85 79 95 20 18 20 17 52 -39 18 -31 66 -99 107 -151 71 -91 73
-96 57 -114 -9 -10 -28 -19 -41 -19 -40 0 -102 -38 -130 -82 -27 -39 -28 -48
-28 -157 0 -101 3 -123 24 -168 13 -29 41 -69 62 -88 68 -61 154 -43 219 46
37 51 38 35 5 -65 -30 -90 -29 -86 -10 -86 9 0 20 12 26 28 20 50 43 186 41
242 -2 65 9 53 32 -38 33 -130 105 -238 202 -304 30 -21 71 -40 90 -44 20 -4
38 -13 41 -21 10 -26 -17 -268 -38 -344 -25 -87 -30 -192 -11 -211 11 -11 16
-10 27 5 34 46 64 270 65 477 l0 84 82 -82 c109 -108 213 -186 361 -272 135
-78 157 -93 157 -107 0 -6 12 -28 27 -49 25 -37 27 -46 32 -202 5 -140 9 -165
24 -176 13 -10 17 -28 17 -77 0 -35 9 -125 21 -199 18 -124 29 -373 16 -386
-3 -3 -15 0 -27 6 -18 10 -25 9 -39 -4 -14 -15 -13 -18 14 -40 l30 -24 -25
-21 c-14 -11 -28 -20 -33 -21 -15 0 -67 -94 -67 -121 0 -36 37 -71 102 -93 43
-16 71 -37 153 -121 115 -118 162 -146 255 -153 58 -4 67 -2 85 18 16 17 20
35 19 84 -1 71 -16 105 -78 175 -24 27 -50 67 -56 88 -7 21 -24 52 -37 69 -15
20 -23 44 -23 70 0 47 -23 84 -52 84 -20 0 -21 3 -15 168 4 112 14 213 31 307
14 77 26 163 26 191 l0 51 48 20 c26 11 62 32 80 47 26 23 32 35 32 68 0 21
-5 49 -11 60 -6 11 -20 52 -30 90 -38 136 -92 215 -219 317 -105 85 -217 201
-338 347 -50 62 -132 149 -180 195 -93 88 -124 129 -99 129 8 0 20 7 27 15 11
13 19 9 60 -29 52 -48 55 -49 215 -66 131 -13 158 -21 239 -75 74 -48 98 -53
161 -30 36 14 41 13 50 -2 23 -38 74 -86 135 -126 35 -23 79 -62 98 -86 30
-39 31 -44 16 -56 -12 -9 -15 -19 -10 -39 5 -22 1 -35 -25 -64 -82 -93 -79
-205 8 -248 30 -15 70 -20 188 -24 96 -4 160 -11 178 -20 15 -7 45 -37 67 -66
81 -107 175 -163 276 -164 83 0 99 14 98 82 0 31 -8 68 -18 87 -10 19 -102
122 -204 229 -156 163 -189 193 -209 189 -18 -3 -31 4 -53 31 -42 51 -86 138
-105 208 l-17 61 35 54 c41 62 54 116 37 149 -7 13 -52 63 -100 111 -70 71
-93 89 -116 89 -16 0 -51 12 -78 26 -114 61 -336 115 -625 154 -85 11 -171 25
-192 30 -40 11 -41 12 -54 115 -4 27 -16 72 -26 100 -10 27 -19 51 -19 51 0 1
9 4 20 7 23 6 28 45 6 53 -20 8 -42 109 -28 137 6 12 13 38 16 58 5 29 2 39
-19 57 -13 12 -28 34 -31 48 -5 18 24 197 80 498 48 259 90 479 93 489 4 16
12 17 61 11 152 -18 284 -68 356 -134 41 -38 106 -145 106 -175 0 -6 32 -16
71 -23 194 -33 383 -149 545 -333 129 -147 129 -147 156 -101 34 57 121 143
194 191 70 47 154 80 242 95 l32 6 0 -88 c0 -48 -7 -136 -15 -196 -24 -179 -1
-146 40 58 13 66 27 142 31 169 6 45 8 47 39 47 79 0 243 -72 378 -167 l74
-51 6 -204 c3 -111 12 -268 19 -348 l13 -145 2 95 c3 134 23 469 29 503 10 47
22 18 34 -83 6 -52 13 -96 15 -99 11 -10 16 10 22 78 4 46 10 70 17 68 6 -3
111 -44 233 -91 463 -181 661 -280 880 -444 l63 -47 -1 -135 c-1 -262 -34
-1488 -40 -1495 -13 -12 -56 18 -74 52 -41 76 -130 126 -225 126 -107 0 -192
-39 -225 -103 -23 -45 -18 -47 21 -9 35 32 34 30 -15 -40 -53 -78 -59 -101
-15 -60 47 43 11 -10 -49 -73 -58 -60 -85 -120 -91 -200 -2 -23 -10 -70 -19
-103 -24 -95 -31 -156 -16 -153 8 2 15 -12 19 -34 5 -30 3 -41 -13 -55 -64
-59 -82 -164 -74 -440 6 -232 11 -254 64 -288 20 -12 34 -31 38 -50 4 -16 9
-37 11 -46 3 -12 -17 -29 -77 -64 -197 -114 -222 -199 -109 -368 27 -41 71
-98 98 -126 53 -56 73 -61 158 -40 45 12 46 11 84 -26 l38 -37 4 -98 c4 -118
17 -140 83 -140 53 0 65 13 65 72 0 30 4 48 12 48 6 0 43 -34 82 -75 39 -41
103 -99 141 -130 39 -30 145 -126 237 -213 l166 -157 -5 -75 c-6 -93 17 -253
52 -357 52 -154 142 -293 257 -396 l62 -56 -3 -130 c-3 -126 -2 -130 21 -144
12 -9 46 -19 73 -23 28 -4 73 -19 100 -35 66 -37 166 -55 221 -40 79 21 114
71 82 113 -7 9 -39 32 -70 50 -33 20 -73 55 -95 85 -47 62 -91 100 -127 109
-49 12 -203 272 -256 432 -23 70 -35 152 -50 349 -6 86 -17 155 -31 195 -12
35 -23 75 -25 91 -7 54 -104 211 -267 430 -79 107 -79 108 -61 130 10 12 20
23 21 25 0 2 70 -19 154 -48 148 -49 344 -103 424 -115 89 -14 85 -10 85 -68
1 -71 23 -190 50 -260 32 -84 110 -196 213 -303 l89 -94 -12 -67 c-20 -116 3
-172 77 -192 21 -6 83 -11 138 -11 83 0 110 -4 160 -25 90 -37 227 -31 270 11
18 18 20 75 3 92 -7 7 -23 12 -37 12 -51 0 -134 29 -163 57 -16 15 -49 60 -74
100 -58 93 -94 114 -134 78 -15 -13 -19 -13 -38 8 -23 25 -185 371 -225 483
-14 39 -31 116 -37 170 -6 55 -15 116 -21 136 -11 41 -54 98 -74 98 -7 0 -19
8 -26 17 -28 34 -229 157 -374 228 -162 79 -376 172 -520 226 -106 39 -102 36
-87 51 15 15 15 71 1 137 -7 36 -19 58 -41 76 l-30 25 7 120 c7 113 9 120 29
121 11 1 86 2 166 3 158 1 187 9 230 63 18 23 21 38 18 79 -7 88 -71 197 -287
494 -60 81 -95 139 -90 144 15 17 10 80 -10 118 l-18 37 24 -16 c13 -9 33 -32
43 -52 l19 -36 1 37 c0 28 -7 44 -33 70 -17 18 -40 38 -49 43 -16 9 -16 56 2
795 11 432 21 799 23 815 3 29 6 27 122 -90 215 -217 352 -447 421 -705 92
-352 130 -432 227 -482 71 -36 147 -28 274 28 402 175 418 180 803 229 151 20
325 47 385 61 61 14 119 28 130 31 19 4 20 -1 22 -178 2 -194 6 -220 26 -200
8 8 12 53 12 139 1 115 3 131 25 170 13 23 57 69 97 102 40 33 73 64 73 69 0
5 19 20 43 34 63 37 165 134 187 177 11 21 37 53 59 71 21 19 75 79 119 135
100 125 219 238 317 300 l74 47 12 74 c12 77 35 118 73 132 11 5 91 4 176 -1
l155 -10 98 46 98 45 65 -25 64 -26 21 -72 c59 -206 74 -248 111 -325 40 -80
126 -184 186 -222 l22 -14 -33 -262 c-18 -145 -36 -266 -40 -270 -4 -3 -17 3
-30 15 -31 30 -46 28 -53 -7 -5 -22 -15 -32 -45 -44 -35 -14 -39 -19 -39 -52
0 -29 4 -38 21 -42 18 -5 20 -11 15 -42 -7 -46 -31 -64 -75 -57 -37 6 -85 -14
-95 -39 -3 -8 -17 -20 -31 -27 -27 -12 -33 -28 -11 -28 8 0 16 -7 20 -15 8
-22 52 -18 97 7 32 18 45 20 76 12 31 -7 39 -14 41 -35 4 -31 -27 -60 -126
-118 -78 -46 -153 -121 -282 -281 -51 -63 -140 -162 -199 -220 -88 -86 -113
-119 -144 -182 -40 -81 -37 -69 -64 -365 -5 -59 -9 -74 -25 -78 -22 -8 -43
-46 -52 -98 -6 -33 -4 -38 19 -49 22 -10 25 -17 25 -66 0 -105 -53 -255 -109
-305 -20 -19 -31 -38 -31 -56 0 -39 -54 -106 -148 -185 -130 -108 -162 -152
-130 -184 20 -20 38 -15 204 57 l159 69 86 -5 c156 -10 168 1 145 143 -11 72
-12 101 -4 120 9 19 8 28 -7 44 -16 18 -17 25 -6 63 7 23 31 81 53 128 l40 87
43 -15 c24 -8 58 -13 77 -11 l33 3 3 84 c2 73 6 88 28 114 32 38 59 93 118
238 l47 115 249 237 250 237 66 16 c37 8 94 26 126 39 l58 23 20 -46 c28 -63
76 -110 124 -123 60 -16 82 -35 136 -116 49 -73 49 -75 43 -132 -9 -89 1 -126
40 -144 80 -39 139 -153 142 -277 1 -41 7 -93 13 -115 6 -22 12 -63 12 -92 0
-29 5 -64 12 -79 12 -26 13 -26 88 -19 123 12 150 35 150 128 0 49 -4 59 -40
100 -22 25 -40 56 -40 69 0 12 -10 43 -21 68 -12 27 -23 76 -26 120 -5 66 -2
83 21 138 35 83 50 161 37 195 -6 14 -24 33 -41 42 -45 23 -106 163 -126 289
-3 22 -34 95 -69 163 -61 118 -63 126 -58 178 4 34 0 80 -10 122 -9 37 -21 95
-26 128 -6 33 -15 83 -21 110 -27 132 46 319 176 450 99 100 109 120 109 230
0 106 -16 147 -82 211 -38 38 -41 43 -28 61 8 11 36 26 62 33 84 23 167 65
197 101 16 19 40 58 54 88 74 161 -60 360 -272 402 -63 13 -92 8 -126 -21 -28
-24 -48 -26 -57 -4 -10 27 19 286 39 344 21 61 61 282 78 435 11 93 15 105 56
167 46 68 91 161 149 306 34 82 34 84 24 170 -6 48 -11 149 -12 224 l-2 137
29 30 c21 22 39 31 62 31 32 0 183 -49 235 -76 l26 -13 13 75 c28 177 100 306
220 398 39 30 50 44 50 67 0 15 6 32 14 36 8 4 26 28 40 53 17 31 43 56 83 80
32 20 58 42 59 50 1 30 44 99 80 129 21 16 64 44 96 61 32 17 77 46 101 64
l43 33 13 -29 c7 -16 30 -40 50 -52 20 -13 64 -51 99 -85 61 -59 127 -99 225
-136 31 -12 53 -28 62 -44 7 -14 22 -35 34 -45 12 -11 21 -29 21 -41 0 -28 25
-89 55 -133 l23 -33 -25 -25 c-28 -28 -73 -120 -73 -149 0 -13 -16 -30 -43
-47 -120 -77 -247 -215 -309 -336 -32 -64 -33 -69 -28 -162 2 -52 5 -243 5
-425 l0 -330 -31 -65 c-17 -36 -55 -96 -83 -135 -56 -75 -66 -102 -57 -139 8
-33 68 -60 138 -60 67 -1 89 16 146 109 20 33 51 81 69 106 40 56 57 132 50
221 -5 56 -1 85 23 168 42 148 54 236 47 360 -5 107 -5 110 22 147 34 46 98
102 209 183 51 37 94 78 111 105 l28 45 7 -67 c4 -36 4 -103 0 -149 -6 -81 -6
-84 14 -84 28 0 52 37 52 80 0 19 -9 64 -20 100 -31 103 -25 161 18 179 15 6
59 15 97 21 101 15 105 18 126 66 11 24 26 44 33 44 7 0 23 10 35 21 17 16 22
29 19 51 -4 22 6 50 37 104 23 40 50 99 61 131 24 75 24 196 1 242 -9 19 -17
49 -17 68 0 26 4 33 20 33 38 0 163 -94 201 -150 13 -19 52 -63 86 -97 58 -58
67 -63 107 -63 62 0 93 14 116 52 36 59 20 188 -22 188 -7 0 -26 16 -44 35
-29 32 -37 35 -86 35 -31 0 -62 6 -75 15 -25 17 -125 15 -160 -3 -30 -16 -53
-15 -75 5 -10 9 -28 21 -41 27 -21 11 -23 24 -44 246 -25 266 -43 371 -83 482
-33 91 -104 204 -168 271 l-46 47 28 0 c20 0 40 12 67 39 41 41 49 70 24 91
-13 11 -15 8 -15 -17 0 -17 -9 -38 -20 -48 -23 -21 -75 -24 -92 -7 -9 9 -6 12
14 12 41 0 42 16 3 46 -20 15 -41 36 -47 48 -11 20 -10 20 15 3 45 -30 49 -18
13 36 -13 19 -22 38 -19 40 11 12 -10 67 -34 91 -14 15 -51 33 -82 42 -31 8
-65 19 -76 24 -19 8 -19 9 3 9 12 1 22 5 22 10 0 11 -33 19 -112 28 -59 6 -61
7 -28 14 19 5 53 5 75 2 31 -4 37 -3 29 6 -6 7 -36 15 -66 18 -96 10 -243 -46
-295 -112 -15 -20 -47 -46 -70 -59 l-42 -24 -6 31 c-3 18 -111 743 -240 1611
l-233 1580 19 37 c17 34 18 50 11 150 -4 62 -4 146 0 188 5 50 4 92 -4 124
-11 42 -10 56 6 100 35 98 96 232 111 243 19 14 184 47 405 79 95 14 176 28
179 31 24 24 -195 14 -439 -21 -58 -8 -109 -15 -113 -15 -4 0 50 112 120 250
l128 250 47 0 c26 0 50 -4 53 -10 3 -5 15 -10 26 -10 16 0 19 5 14 23 -7 25
-62 77 -82 77 -16 0 -16 2 -1 35 13 30 32 28 36 -3 2 -12 7 -22 11 -22 13 0
31 24 31 42 0 15 3 17 19 8 28 -15 41 -12 41 8 0 33 -102 82 -172 82 -18 0
-29 7 -33 20 -3 11 -18 29 -32 40 -46 36 -119 23 -199 -35 -20 -15 -21 -15
-16 10 2 14 13 30 23 36 25 13 24 40 -1 46 -16 4 -20 14 -20 43 0 43 -13 52
-48 36 -19 -8 -26 -7 -34 7 -12 22 -31 11 -23 -13 4 -13 -4 -24 -30 -40 -20
-12 -38 -21 -40 -19 -2 2 -10 32 -19 66 -29 112 -141 348 -195 414 -19 23 -20
23 -21 3 0 -11 4 -24 9 -30 21 -21 122 -237 146 -310 26 -81 38 -187 20 -192
-5 -1 -13 23 -16 53 -10 84 -30 95 -25 14 2 -35 2 -52 -1 -36 -7 41 -31 33
-44 -15 l-12 -43 -11 55 c-20 92 -59 145 -137 185 -34 18 -53 0 -23 -22 81
-58 118 -126 119 -221 0 -59 -2 -65 -30 -85 -16 -11 -47 -38 -67 -59 -64 -66
-85 -44 -29 31 24 32 24 34 7 46 -17 13 -15 17 23 74 23 33 41 64 41 69 0 17
-28 21 -47 7 -10 -8 -28 -15 -41 -15 -14 0 -46 -24 -89 -67 -36 -38 -69 -67
-72 -66 -4 1 -49 -27 -101 -63 -52 -35 -98 -64 -102 -64 -4 0 14 19 40 42 95
84 222 213 222 225 0 21 -18 24 -60 12 -38 -11 -42 -11 -56 9 -19 27 -33 21
-27 -10 4 -19 -7 -31 -56 -65 -56 -38 -61 -40 -55 -19 7 31 -20 58 -50 50 -22
-5 -23 -4 -16 38 3 24 12 53 18 65 16 29 15 33 -7 33 -15 0 -20 11 -25 61 -8
64 -42 188 -57 203 -21 22 -19 -8 5 -105 35 -136 34 -183 -1 -214 -40 -35 -53
-32 -53 15 0 50 -15 52 -25 4 -6 -33 -9 -36 -35 -31 -35 7 -100 -22 -128 -58
-11 -14 -22 -25 -25 -25 -2 0 -7 19 -11 41 -4 23 -18 65 -31 93 -25 54 -90
136 -106 136 -24 0 -19 -34 10 -75 43 -60 68 -120 79 -187 9 -56 8 -58 -25
-90 -25 -24 -33 -28 -33 -15 0 22 -15 21 -56 -4 -19 -11 -34 -18 -34 -14 0 16
55 75 66 71 22 -9 37 20 22 43 -16 26 -23 26 -58 1 -16 -11 -35 -17 -44 -14
-9 3 -28 -1 -42 -11 -19 -12 -29 -14 -37 -6 -16 16 -52 13 -67 -4 -20 -24 -22
-12 -6 27 15 36 17 93 3 116 -16 25 -144 -86 -216 -187 -17 -24 -31 -41 -31
-38 0 3 16 47 35 98 27 69 33 94 23 100 -21 13 -43 -8 -79 -73 l-34 -63 -5 47
c-4 31 -14 55 -28 68 -14 14 -22 33 -22 55 0 24 -5 35 -15 35 -9 0 -15 -9 -15
-22 0 -41 -12 -68 -29 -68 -10 0 -48 -18 -85 -41 -53 -32 -70 -38 -76 -28 -34
60 -56 89 -67 89 -18 0 -17 -10 14 -76 l26 -57 -29 -23 c-16 -13 -40 -33 -53
-46 -26 -25 -25 -22 4 35 14 27 16 40 8 48 -8 8 -28 -3 -75 -40 l-63 -51 -3
60 c-2 33 -7 60 -11 60 -5 0 -11 -26 -15 -58 l-7 -58 -60 -33 c-33 -18 -63
-31 -66 -27 -3 3 -9 26 -14 52 -10 55 -58 164 -72 164 -10 0 -8 -13 17 -105 9
-32 16 -76 16 -97 0 -34 -3 -38 -24 -38 -16 0 -27 7 -31 20 -13 40 -39 22 -78
-53 -40 -77 -82 -135 -92 -125 -3 3 17 38 45 78 27 41 50 80 50 87 0 29 -35 9
-100 -57 -39 -39 -70 -69 -70 -66 0 3 21 36 46 72 25 37 56 89 70 115 23 46
23 49 6 58 -11 6 -33 6 -57 1 -22 -5 -41 -7 -43 -6 -2 2 4 31 12 64 9 33 16
75 16 93 0 30 -1 32 -16 18 -8 -9 -34 -55 -58 -102 l-42 -86 -12 92 c-13 106
-56 265 -77 286 -27 27 -29 1 -7 -92 28 -116 42 -214 42 -294 0 -55 -2 -63
-19 -63 -10 0 -24 6 -31 14 -9 12 -7 17 9 28 28 17 27 32 -3 24 -21 -5 -24 -2
-30 33 -6 42 -28 66 -50 58 -9 -4 -29 -32 -45 -64 l-30 -58 -1 86 c0 64 -4 90
-15 99 -18 15 -45 6 -45 -14 0 -28 -41 -126 -51 -121 -15 10 -10 57 17 130 38
107 38 106 24 115 -11 7 -11 11 -1 24 24 28 6 48 -36 40 -54 -9 -98 -46 -127
-106 l-25 -53 -1 72 0 71 56 37 c71 47 60 69 -15 31 l-51 -26 0 34 c0 19 -2
41 -5 48 -4 9 5 20 20 28 25 13 35 40 15 40 -6 0 -33 -11 -60 -25 -57 -29 -58
-26 -35 51 39 128 6 108 -55 -33 -46 -108 -77 -162 -92 -163 -4 0 -9 87 -10
193 -3 163 -5 192 -18 192 -11 0 -16 -13 -17 -45 -7 -124 -15 -169 -28 -164
-7 3 -19 -4 -25 -16 -20 -38 -20 -16 0 38 11 29 20 59 20 67 0 25 -26 17 -40
-12 -7 -16 -14 -23 -16 -18 -2 6 -10 36 -19 68 -14 49 -20 57 -40 57 -18 0
-25 7 -30 30 -6 28 -23 38 -38 23z m-801 -485 c13 -26 24 -50 24 -52 0 -10
-85 -63 -95 -60 -6 2 -8 26 -7 54 3 38 1 50 -10 50 -15 0 -67 -51 -87 -85 -10
-17 -11 -15 -6 15 9 48 52 140 78 168 l22 24 28 -34 c16 -18 39 -54 53 -80z
m2789 -190 c-4 -24 -11 -60 -16 -81 -9 -33 -12 -36 -30 -27 -11 6 -24 8 -30 4
-6 -4 -15 -1 -19 5 -4 7 -15 14 -26 15 -18 3 -38 51 -28 68 11 17 100 57 127
58 28 0 29 -1 22 -42z m-2790 -1252 c148 -16 194 -26 320 -68 497 -166 865
-583 976 -1105 17 -82 21 -138 22 -338 l2 -240 -162 -3 -163 -2 0 152 c0 172
-15 385 -29 432 -61 198 -100 285 -178 395 -186 260 -429 415 -742 472 -251
46 -509 -1 -745 -134 -226 -127 -424 -365 -506 -607 -49 -143 -60 -224 -66
-460 -2 -124 -4 -231 -4 -238 0 -10 -36 -12 -162 -10 l-163 3 1 222 c0 222 8
293 45 441 65 261 233 533 444 724 61 55 158 129 185 141 8 4 31 17 50 29 169
103 357 165 585 192 144 18 140 18 290 2z m29 -432 c229 -45 401 -137 552
-296 102 -108 184 -240 227 -368 43 -127 49 -180 51 -420 l1 -235 -1000 0
-1000 0 1 225 c1 172 5 244 18 305 66 306 246 542 529 694 175 95 427 133 621
95z m4785 -1104 c83 -558 189 -1274 236 -1591 91 -615 89 -591 42 -681 l-24
-46 -119 117 c-87 85 -148 158 -228 270 -101 142 -116 171 -131 243 -2 14 -27
48 -54 75 l-49 48 43 130 c23 72 59 168 79 215 20 46 36 92 36 102 0 24 -95
237 -191 430 -44 87 -79 169 -79 184 0 15 23 61 54 107 29 45 81 129 114 187
l62 106 -20 69 c-11 39 -23 102 -26 140 -7 75 -22 109 -99 220 -143 205 -140
193 -51 303 78 96 115 154 191 296 33 61 60 106 61 100 2 -5 71 -466 153
-1024z m-10565 -125 c5 -23 1 -45 -10 -67 -35 -70 -121 -210 -227 -372 l-112
-168 -33 38 c-18 21 -43 57 -55 79 l-23 40 73 82 c52 59 73 90 73 109 0 39 78
125 186 205 51 37 95 72 99 78 12 20 23 11 29 -24z m46 -146 c0 -22 73 -177
128 -269 30 -52 91 -148 134 -213 43 -65 81 -124 84 -131 3 -8 -10 -18 -34
-28 -36 -14 -40 -14 -71 8 -36 25 -41 24 -185 -26 -33 -11 -62 -20 -66 -20
-12 0 -17 70 -6 79 6 5 24 11 39 15 32 8 50 44 41 84 -4 15 -30 77 -60 137
-74 153 -78 178 -48 282 13 46 24 85 24 88 0 3 5 5 10 5 6 0 10 -5 10 -11z
m3970 -224 l0 -145 -195 0 -195 0 0 145 0 145 195 0 195 0 0 -145z m3060 0 l0
-145 -1462 2 -1463 3 -3 143 -3 142 1466 0 1465 0 0 -145z m498 3 l-3 -143
-182 -3 -183 -2 0 145 0 145 185 0 186 0 -3 -142z m-7707 -30 c-46 -83 -165
-228 -187 -228 -18 0 -27 -15 110 190 94 139 111 160 114 138 2 -17 -12 -54
-37 -100z m118 -308 c10 -31 8 -37 -16 -62 -14 -15 -30 -25 -34 -22 -11 7 -37
96 -49 168 -8 52 -7 62 18 112 l27 55 21 -108 c13 -59 27 -124 33 -143z m7966
-1438 l0 -1492 -1751 -3 c-1707 -2 -1752 -2 -1773 -21 -28 -25 -27 -70 1 -90
20 -14 204 -16 1770 -16 1110 0 1749 -4 1753 -10 9 -14 -23 -127 -53 -189 -31
-62 -118 -154 -176 -183 -87 -44 -122 -48 -508 -48 -203 0 -368 -2 -368 -4 0
-2 55 -59 123 -125 l122 -120 3 -400 c3 -381 4 -400 22 -406 10 -3 34 -23 53
-45 62 -68 62 -172 0 -241 -97 -107 -261 -69 -308 71 -14 41 -15 56 -5 87 19
60 47 98 85 119 l35 19 0 375 0 375 -148 148 -147 147 -163 0 c-89 0 -162 -3
-162 -7 0 -4 75 -83 168 -175 l167 -168 5 -67 c5 -66 6 -68 47 -95 108 -73
108 -225 0 -303 -36 -26 -51 -30 -103 -29 -68 1 -105 20 -151 81 -22 29 -27
45 -27 98 0 54 4 69 28 100 15 20 43 46 62 58 29 19 34 28 34 62 0 36 -6 47
-55 95 l-55 54 -115 -115 -115 -115 0 -182 c0 -169 -1 -182 -19 -192 -31 -16
-59 -12 -75 12 -13 18 -16 57 -16 214 l0 191 132 132 131 133 -109 109 -109
109 -258 -2 -257 -3 -1 -490 c0 -447 2 -491 17 -500 74 -44 104 -94 104 -172
0 -87 -48 -151 -129 -173 -154 -41 -283 118 -211 260 18 36 66 80 88 80 5 0
13 7 16 16 3 9 6 216 6 460 0 349 -3 444 -13 444 -6 0 -47 -36 -90 -80 l-77
-80 0 -282 c0 -248 -2 -284 -17 -300 -22 -25 -59 -23 -77 4 -14 19 -16 67 -16
326 l0 304 90 91 c50 50 90 92 90 94 0 2 -91 3 -202 3 l-203 0 -102 -102 c-57
-57 -103 -107 -103 -113 0 -6 56 -67 125 -136 l125 -125 0 -201 c0 -218 -4
-233 -55 -233 -50 0 -55 17 -55 207 l0 176 -115 116 -115 116 -55 -57 c-46
-47 -55 -62 -55 -92 0 -31 6 -40 40 -62 58 -39 85 -87 85 -155 0 -70 -23 -114
-78 -154 -36 -26 -51 -30 -104 -30 -53 0 -66 4 -100 31 -110 89 -108 217 4
299 41 30 42 31 42 94 l1 65 177 178 177 178 -169 0 -170 0 -147 -147 -148
-148 0 -372 0 -372 33 -22 c50 -35 64 -53 83 -107 18 -50 18 -53 -1 -107 -47
-138 -215 -173 -309 -64 -64 75 -61 173 8 244 22 23 47 44 54 46 10 3 13 81
12 380 0 209 4 387 9 401 5 13 61 76 125 140 64 63 116 118 116 122 0 3 -165
6 -367 6 -387 0 -422 4 -508 47 -66 34 -141 116 -180 197 -19 40 -35 78 -35
85 0 8 64 11 231 11 226 0 262 4 281 34 4 6 8 533 8 1172 l0 1161 -21 19 c-19
17 -42 19 -264 22 l-244 3 -3 130 c-2 72 -1 133 1 135 2 2 716 4 1585 4 1754
0 1626 -5 1626 64 0 71 128 66 -1631 68 l-1583 3 -4 182 c-2 101 -2 189 2 198
5 13 258 15 2343 13 l2338 -3 0 -1493z m-9025 1247 c19 -12 68 -52 110 -89 41
-36 90 -77 108 -89 17 -12 32 -28 32 -36 0 -30 -140 -121 -526 -340 -142 -81
-263 -150 -267 -152 -25 -15 24 45 127 156 109 118 117 129 156 226 43 107 50
115 112 115 45 0 58 10 58 45 0 66 30 185 47 185 5 0 24 -10 43 -21z m1695
-228 c86 -172 122 -347 140 -691 6 -120 30 -351 44 -433 7 -37 2 -82 -20 -199
-16 -83 -30 -152 -32 -155 -8 -8 -53 16 -74 39 l-22 23 38 -3 c37 -4 39 -2 50
31 14 42 6 84 -22 115 -28 30 -66 28 -116 -9 -24 -17 -44 -29 -46 -27 -2 2
-21 39 -44 83 -54 107 -69 179 -77 380 -5 114 -14 200 -28 262 -19 80 -20 104
-12 199 7 74 6 128 -2 173 -7 43 -8 69 -1 77 5 7 15 31 22 55 11 39 21 49 82
86 38 24 75 43 82 43 7 0 24 -22 38 -49z m3057 -612 c2 -102 -1 -163 -7 -165
-6 -3 -154 -3 -330 -2 l-320 3 -3 150 c-1 82 0 155 2 162 4 10 74 13 330 13
l325 0 3 -161z m6528 111 c0 -11 11 -27 24 -35 13 -9 31 -36 41 -60 23 -62
176 -383 213 -447 16 -29 61 -89 98 -133 38 -43 64 -76 59 -73 -6 3 -72 13
-149 22 -154 18 -224 32 -243 48 -7 6 -20 34 -29 64 -20 69 -44 98 -100 120
l-46 19 7 70 c11 132 47 283 95 411 11 28 30 24 30 -6z m-6525 -570 l0 -160
-332 0 -333 0 0 160 0 160 333 0 332 0 0 -160z m6515 -193 c25 -17 77 -52 115
-78 81 -55 252 -128 375 -159 65 -17 101 -21 151 -16 l65 6 41 -43 c34 -34 43
-53 52 -101 16 -90 18 -87 -49 -60 -124 50 -246 75 -395 80 l-140 5 -27 -36
c-14 -20 -38 -72 -52 -116 -14 -44 -42 -105 -62 -136 -35 -55 -35 -55 -51 -33
-11 15 -23 20 -39 17 -28 -5 -30 0 -39 118 -4 44 -17 177 -31 295 -13 118 -24
234 -24 257 0 42 0 42 33 37 17 -3 52 -20 77 -37z m-9337 -139 c14 -64 44
-180 67 -256 l42 -140 -68 -93 c-136 -189 -256 -350 -260 -347 -2 2 17 109 41
238 25 129 45 238 45 241 0 4 14 12 31 20 106 44 118 124 25 176 -27 15 -14
63 17 63 12 0 29 5 37 10 17 11 9 13 -34 10 -20 -1 -27 2 -24 12 3 7 13 60 23
117 21 119 22 118 58 -51z m2818 38 c2 -2 3 -77 1 -165 l-3 -161 -329 0 -330
0 0 158 c0 87 3 162 7 165 7 7 647 10 654 3z m0 -460 c2 -2 3 -76 1 -163 l-3
-158 -327 2 -327 2 -3 161 -2 160 328 0 c181 0 331 -2 333 -4z m1 -607 c2
-102 -1 -163 -7 -165 -6 -3 -154 -3 -330 -2 l-320 3 -3 150 c-1 82 0 155 2
162 4 10 74 13 330 13 l325 0 3 -161z m5223 -1756 l95 -47 55 27 c66 32 69 33
56 8 -6 -10 -33 -94 -61 -185 -44 -150 -51 -182 -60 -319 -6 -84 -15 -192 -21
-242 -9 -87 -11 -91 -48 -125 -39 -35 -39 -36 -51 -145 -14 -125 -38 -182
-134 -312 l-53 -73 -24 26 c-13 14 -38 34 -55 44 l-31 20 38 262 c20 145 62
445 94 668 31 223 59 413 61 423 8 27 36 21 139 -30z m-235 -313 c0 -33 -129
-972 -134 -978 -26 -26 -268 238 -282 307 -3 14 -12 51 -21 82 -15 54 -15 60
6 127 11 38 42 112 68 163 59 118 173 238 272 287 75 37 91 39 91 12z m-4750
-3089 l0 -153 -32 6 c-18 3 -52 19 -74 35 -23 16 -51 32 -63 36 -13 4 -21 15
-21 28 0 18 2 19 10 7 10 -17 12 -16 34 28 17 32 36 43 36 20 1 -26 28 40 45
109 l17 72 24 -17 c23 -17 23 -21 24 -171z m63 97 c34 -45 55 -90 83 -172 35
-103 37 -100 -53 -92 -42 3 -77 7 -78 9 -6 9 9 287 16 287 4 0 19 -15 32 -32z"/>
<path d="M7521 10430 c-122 -18 -252 -119 -316 -245 -28 -56 -30 -67 -30 -175
0 -109 2 -119 32 -183 22 -46 52 -88 93 -128 l60 -59 0 -283 c0 -262 1 -285
18 -300 16 -15 46 -17 218 -17 109 0 204 4 210 8 30 20 34 55 34 325 l0 275
58 59 c68 70 105 141 122 239 39 219 -127 447 -351 484 -70 11 -71 11 -148 0z"/>
<path d="M6540 7493 c-72 -29 -53 -133 24 -133 33 0 61 21 67 50 11 56 -40
103 -91 83z"/>
<path d="M8587 7480 c-52 -41 -27 -120 39 -120 44 1 68 24 68 65 0 62 -59 93
-107 55z"/>
<path d="M7546 6975 c-33 -30 -34 -68 -1 -100 30 -30 54 -31 89 -4 19 15 26
30 26 54 0 24 -7 39 -26 54 -35 27 -55 26 -88 -4z"/>
<path d="M6120 6913 c-51 -66 29 -146 98 -97 31 21 31 87 0 108 -35 25 -73 20
-98 -11z"/>
<path d="M8972 6920 c-28 -26 -29 -73 -2 -100 42 -42 120 -10 120 50 0 33 -38
70 -71 70 -14 0 -35 -9 -47 -20z"/>
</g>
</svg>
