<svg id="svg" version="1.1" xmlns="http://www.w3.org/2000/svg" xmlns:xlink="http://www.w3.org/1999/xlink" width="400" height="441.37931034482756" viewBox="0, 0, 400,441.37931034482756"><g id="svgg"><path id="path0" d="M235.488 3.521 C 235.407 3.653,235.393 5.144,235.458 6.833 C 235.528 8.676,235.467 9.972,235.305 10.072 C 235.063 10.222,234.952 8.892,234.908 5.310 C 234.902 4.817,234.832 4.414,234.753 4.414 C 234.540 4.414,233.373 8.317,233.377 9.018 C 233.378 9.351,233.248 9.704,233.088 9.803 C 232.893 9.923,232.816 9.380,232.856 8.152 C 232.920 6.191,232.654 5.636,231.785 5.912 C 231.264 6.077,230.897 7.074,230.897 8.324 C 230.897 8.872,229.618 10.183,229.068 10.198 C 228.897 10.203,228.613 10.381,228.436 10.594 C 228.099 11.000,226.483 10.463,226.483 9.945 C 226.483 9.559,227.296 9.029,227.936 8.997 C 228.429 8.972,228.552 8.801,228.552 8.138 C 228.552 5.526,224.940 8.305,222.488 12.803 C 221.412 14.778,221.112 15.149,220.901 14.771 C 220.595 14.224,220.847 12.966,221.263 12.966 C 221.421 12.966,221.462 13.121,221.355 13.310 C 221.204 13.577,221.240 13.582,221.513 13.329 C 221.967 12.910,221.676 12.138,221.065 12.138 C 220.807 12.138,220.368 12.343,220.091 12.594 C 219.628 13.013,219.586 13.014,219.586 12.602 C 219.586 11.622,220.944 9.144,221.900 8.382 C 223.535 7.077,223.081 6.366,221.305 7.449 C 220.298 8.062,218.884 10.112,218.612 11.351 C 218.354 12.526,216.688 11.991,216.499 10.672 C 216.452 10.344,216.219 10.038,215.981 9.992 C 215.594 9.919,215.586 10.123,215.901 11.920 C 216.249 13.898,216.135 17.264,215.711 17.525 C 215.596 17.597,215.191 17.128,214.811 16.483 C 214.432 15.838,213.676 14.752,213.131 14.069 L 212.139 12.828 213.173 12.352 C 213.742 12.091,214.424 11.873,214.690 11.869 C 214.955 11.865,215.172 11.676,215.172 11.448 C 215.172 10.869,213.918 10.927,212.496 11.573 L 211.337 12.099 210.329 11.298 C 208.612 9.933,206.639 9.949,206.200 11.331 C 205.935 12.167,206.337 12.377,206.822 11.655 C 207.404 10.791,208.355 10.878,209.523 11.904 L 210.513 12.773 209.534 13.776 C 208.995 14.328,208.130 15.573,207.612 16.543 L 206.669 18.308 206.358 17.085 C 205.767 14.764,204.899 12.690,204.518 12.690 C 204.049 12.690,204.034 12.553,204.690 14.279 C 205.333 15.972,205.365 16.275,204.897 16.278 C 204.707 16.278,204.210 16.457,203.793 16.675 C 203.376 16.893,203.034 16.954,203.034 16.811 C 203.034 15.849,202.216 16.738,202.067 17.862 C 201.830 19.652,200.962 24.296,200.653 25.428 C 200.448 26.183,199.055 25.894,198.950 25.074 C 198.222 19.385,195.184 15.087,193.090 16.783 C 192.228 17.481,192.616 18.082,193.539 17.478 C 194.702 16.715,196.152 18.674,197.083 22.266 C 197.656 24.478,197.679 24.395,196.414 24.732 L 195.311 25.027 194.759 23.173 C 194.455 22.154,194.207 21.178,194.207 21.005 C 194.207 20.533,192.491 20.625,191.761 21.136 C 191.251 21.493,190.986 21.521,190.445 21.274 C 188.373 20.330,188.573 21.228,190.657 22.224 C 194.694 24.154,195.382 26.078,193.290 29.592 C 192.456 30.992,191.554 32.603,191.284 33.172 C 190.038 35.803,189.966 32.597,191.204 29.622 C 192.215 27.193,192.090 26.714,190.924 28.553 L 190.096 29.859 189.918 29.067 C 189.442 26.945,188.638 24.086,188.416 23.728 C 187.876 22.855,187.799 23.826,188.246 25.859 C 189.094 29.716,189.115 31.892,188.321 33.793 C 187.604 35.513,187.034 35.289,187.034 33.289 C 187.034 32.929,186.786 32.572,186.424 32.410 C 186.016 32.228,185.606 31.555,185.189 30.383 C 184.417 28.215,182.588 24.771,182.126 24.617 C 181.938 24.554,182.205 25.352,182.720 26.389 C 183.675 28.315,184.410 30.303,184.232 30.481 C 183.965 30.747,181.595 29.858,181.168 29.331 C 180.487 28.489,178.958 28.045,177.497 28.265 C 175.799 28.519,175.968 28.966,177.763 28.966 C 178.805 28.966,179.440 29.120,179.888 29.483 L 180.527 30.000 179.367 30.592 C 178.729 30.917,178.207 31.305,178.207 31.454 C 178.207 31.833,178.347 31.799,179.373 31.173 C 180.790 30.309,181.110 30.442,181.635 32.113 C 182.137 33.707,181.161 37.793,180.278 37.793 C 180.075 37.793,179.986 38.042,180.057 38.415 C 180.204 39.181,179.680 40.642,179.334 40.429 C 179.195 40.343,178.811 40.709,178.481 41.244 L 177.881 42.215 177.184 40.817 C 176.505 39.454,176.495 39.348,176.781 36.626 C 177.167 32.958,176.916 32.525,175.535 34.477 C 175.108 35.081,174.597 35.577,174.400 35.580 C 174.203 35.584,173.584 36.548,173.024 37.724 L 172.006 39.862 171.763 38.719 C 171.498 37.471,172.116 36.271,174.275 33.838 C 174.792 33.255,175.154 32.718,175.080 32.643 C 174.835 32.398,173.674 33.330,172.554 34.671 L 171.452 35.990 171.255 35.167 C 171.070 34.393,171.064 34.402,171.147 35.309 C 171.214 36.047,171.011 36.596,170.280 37.653 L 169.326 39.034 169.514 37.931 C 169.617 37.324,169.769 36.486,169.851 36.069 C 169.940 35.615,169.880 35.310,169.700 35.310 C 169.324 35.310,168.725 37.305,168.291 40.000 C 167.776 43.202,167.418 44.414,166.987 44.414 C 166.773 44.414,166.232 44.684,165.785 45.015 C 165.338 45.345,164.929 45.563,164.876 45.498 C 164.300 44.793,163.034 42.729,163.034 42.496 C 163.034 41.910,165.265 37.767,165.663 37.614 C 165.884 37.529,166.002 37.356,165.923 37.229 C 165.845 37.102,166.032 36.588,166.338 36.086 C 166.946 35.088,167.025 34.759,166.655 34.759 C 166.523 34.759,165.933 35.539,165.345 36.493 C 164.757 37.447,163.672 38.779,162.935 39.453 L 161.594 40.678 160.947 39.867 C 160.061 38.756,159.764 39.209,160.509 40.535 C 160.961 41.339,161.031 41.668,160.781 41.822 C 160.597 41.936,160.404 41.902,160.353 41.748 C 160.273 41.510,157.766 37.128,156.985 35.864 C 156.267 34.701,156.424 36.123,157.184 37.664 C 158.063 39.448,158.041 39.581,156.880 39.460 C 156.606 39.431,156.231 39.533,156.047 39.685 C 155.804 39.887,155.289 39.423,154.151 37.981 C 152.295 35.627,150.621 33.957,150.621 34.458 C 150.621 34.656,151.219 35.581,151.950 36.513 C 152.681 37.444,153.566 38.622,153.918 39.129 C 154.897 40.542,153.758 39.713,152.612 38.178 C 152.114 37.511,151.541 36.966,151.339 36.966 C 150.847 36.966,148.138 34.279,148.138 33.792 C 148.138 33.580,148.355 33.280,148.621 33.126 C 149.026 32.889,148.971 32.844,148.276 32.840 C 147.821 32.838,147.268 32.950,147.048 33.089 C 146.754 33.275,146.423 33.089,145.806 32.392 C 144.479 30.892,143.933 31.519,145.023 33.292 C 145.824 34.593,147.034 37.121,147.034 37.493 C 147.034 37.817,145.275 38.723,145.183 38.446 C 145.134 38.299,144.649 37.427,144.106 36.508 C 141.513 32.126,139.320 31.079,141.536 35.282 C 143.076 38.202,142.684 38.743,140.927 36.123 C 140.183 35.015,140.058 35.692,140.624 37.757 C 141.075 39.402,141.096 39.721,140.763 39.849 C 140.178 40.073,140.138 40.048,140.138 39.464 C 140.138 39.169,139.895 38.758,139.599 38.550 C 139.303 38.343,138.934 37.839,138.778 37.431 C 138.471 36.623,137.808 36.445,137.555 37.103 C 137.297 37.777,136.925 37.579,136.651 36.623 C 136.337 35.527,135.544 35.289,135.201 36.186 L 134.956 36.828 134.758 36.069 C 134.539 35.225,133.796 35.056,133.241 35.724 C 132.801 36.254,132.242 36.254,132.038 35.724 C 131.769 35.022,131.445 35.258,130.807 36.621 C 130.470 37.341,130.373 37.704,130.592 37.425 C 131.173 36.689,131.597 37.600,132.045 40.552 C 132.733 45.072,132.518 47.724,131.466 47.724 C 131.424 47.724,131.236 46.421,131.047 44.828 C 130.780 42.575,130.611 41.931,130.286 41.931 C 129.954 41.931,129.901 42.171,130.026 43.103 C 130.112 43.748,130.258 45.207,130.349 46.345 L 130.516 48.414 129.534 49.037 L 128.552 49.660 128.552 48.968 C 128.552 48.587,128.431 48.276,128.284 48.276 C 128.137 48.276,127.695 47.624,127.302 46.828 C 126.508 45.220,125.584 43.979,125.352 44.211 C 125.269 44.294,125.531 44.884,125.934 45.522 C 127.609 48.175,128.012 50.208,126.944 50.617 C 126.647 50.731,126.315 50.530,125.952 50.015 C 124.162 47.478,122.320 46.342,121.434 47.228 C 120.917 47.745,121.010 48.646,121.559 48.436 C 122.484 48.081,123.883 48.841,124.712 50.149 L 125.513 51.411 124.481 51.997 C 123.300 52.668,123.169 52.555,123.546 51.191 C 123.898 49.916,123.566 49.752,122.481 50.664 C 121.528 51.466,121.529 51.467,120.647 49.793 C 119.388 47.403,116.937 46.203,115.517 47.281 C 114.867 47.774,114.903 48.090,115.568 47.734 C 117.011 46.962,118.342 47.902,119.838 50.750 C 121.255 53.447,120.865 54.240,119.250 51.945 C 118.630 51.065,117.803 50.046,117.411 49.680 L 116.698 49.015 116.821 51.335 C 116.889 52.611,117.052 54.028,117.184 54.483 C 117.407 55.253,117.348 55.354,116.339 55.931 C 115.054 56.666,114.759 56.701,114.759 56.115 C 114.759 55.875,114.603 55.730,114.414 55.794 C 113.907 55.965,113.398 55.160,113.388 54.172 C 113.350 50.421,112.275 50.651,110.754 54.736 L 110.147 56.369 109.392 55.081 C 108.106 52.887,107.792 53.179,107.077 57.228 L 106.608 59.886 105.787 59.029 C 105.332 58.554,104.719 57.410,104.414 56.465 C 103.827 54.651,103.296 54.323,103.333 55.799 C 103.358 56.820,103.917 60.141,104.188 60.882 C 104.361 61.357,104.344 61.357,103.818 60.897 C 103.086 60.255,102.808 60.285,103.172 60.966 C 103.397 61.384,103.382 61.516,103.113 61.513 C 102.538 61.506,102.176 61.163,101.661 60.138 C 100.688 58.198,99.604 57.455,99.089 58.375 C 98.882 58.745,98.738 58.653,98.226 57.823 C 97.865 57.239,97.391 56.828,97.081 56.828 C 96.448 56.828,96.445 56.870,96.969 58.596 C 97.887 61.622,96.885 61.533,95.172 58.436 C 94.490 57.201,93.736 56.139,93.498 56.076 C 93.260 56.013,92.684 55.190,92.219 54.246 C 90.819 51.406,89.424 50.078,89.000 51.181 C 88.894 51.459,89.062 51.689,89.493 51.853 C 90.141 52.099,90.417 52.667,91.428 55.840 C 91.997 57.627,91.826 57.703,90.887 56.081 C 89.957 54.476,86.144 49.103,84.873 47.607 C 83.687 46.211,83.298 46.740,84.456 48.174 C 86.704 50.958,91.310 58.809,91.310 59.857 C 91.310 60.440,90.557 60.107,90.230 59.379 C 89.565 57.902,86.278 53.241,85.901 53.241 C 85.418 53.241,85.421 53.656,85.927 56.533 C 86.448 59.491,86.518 59.499,84.221 56.339 C 81.412 52.476,80.078 51.035,79.360 51.088 C 79.029 51.112,78.024 50.613,77.127 49.980 C 76.229 49.346,75.391 48.828,75.265 48.828 C 74.693 48.828,75.164 49.368,76.759 50.542 C 79.200 52.338,81.549 55.865,81.651 57.886 C 81.653 57.936,81.109 57.498,80.443 56.911 C 76.628 53.553,75.065 53.834,76.712 57.580 C 77.587 59.572,77.240 59.654,75.381 57.894 C 72.406 55.077,71.172 54.358,71.172 55.440 C 71.172 55.808,71.040 55.932,70.761 55.825 C 70.209 55.613,69.914 56.447,70.353 56.976 C 71.417 58.257,66.475 55.572,64.483 53.786 C 63.224 52.658,62.681 52.517,63.629 53.564 C 64.153 54.144,63.896 54.197,62.658 53.765 C 61.032 53.198,60.734 53.671,61.940 54.906 C 63.225 56.222,63.199 56.228,60.807 55.143 C 59.694 54.638,58.877 54.405,58.820 54.576 C 58.766 54.735,58.514 54.802,58.258 54.725 C 58.002 54.648,58.694 55.020,59.795 55.552 C 61.602 56.425,65.103 58.668,65.103 58.953 C 65.103 59.101,64.614 58.809,63.586 58.046 C 61.244 56.307,58.759 55.406,58.759 56.294 C 58.759 56.733,58.882 56.826,59.292 56.696 C 59.815 56.530,63.172 58.369,63.172 58.822 C 63.172 58.933,62.566 59.011,61.824 58.994 C 61.082 58.977,60.331 59.053,60.154 59.162 C 59.954 59.286,59.718 59.055,59.526 58.547 C 59.234 57.773,58.082 57.095,57.084 57.109 C 56.867 57.112,55.559 56.537,54.176 55.832 C 51.005 54.214,50.224 54.354,53.218 56.004 C 55.604 57.319,55.744 57.478,54.911 57.923 C 54.615 58.081,54.156 58.579,53.891 59.028 C 53.512 59.670,53.272 59.811,52.773 59.686 C 52.086 59.513,51.940 59.830,52.465 60.355 C 52.805 60.695,53.832 64.276,53.589 64.276 C 53.514 64.276,52.736 63.841,51.862 63.310 C 50.154 62.273,49.655 62.136,49.655 62.707 C 49.655 63.125,51.067 64.552,51.481 64.552 C 51.634 64.552,52.123 64.943,52.569 65.422 C 53.207 66.107,53.262 66.247,52.828 66.081 C 51.103 65.421,45.793 65.594,45.793 66.310 C 45.793 66.595,46.741 66.712,49.956 66.826 C 54.797 66.998,54.476 66.812,54.976 69.724 C 55.424 72.332,55.462 72.276,54.022 71.135 C 52.298 69.770,52.014 70.509,53.590 72.262 C 55.058 73.894,55.724 75.621,55.724 77.794 L 55.724 79.351 53.172 79.360 C 51.500 79.366,50.205 79.526,49.414 79.823 C 46.857 80.782,45.248 80.335,43.407 78.152 C 41.563 75.964,34.970 70.621,34.115 70.621 C 33.964 70.621,34.574 71.133,35.472 71.759 C 39.631 74.659,42.781 77.747,44.799 80.902 C 45.915 82.647,45.823 82.596,47.174 82.201 C 48.695 81.757,51.877 81.356,52.216 81.566 C 52.386 81.671,53.111 81.765,53.826 81.775 C 55.636 81.802,55.609 81.676,54.944 86.970 C 54.614 89.588,54.345 92.279,54.345 92.949 C 54.345 94.077,54.237 94.262,52.897 95.418 C 52.100 96.106,50.331 97.801,48.966 99.184 C 46.009 102.180,41.510 104.907,38.976 105.240 C 37.951 105.374,36.974 105.789,35.569 106.688 C 31.210 109.477,29.153 108.524,30.906 104.529 C 31.797 102.499,31.770 102.144,30.646 101.127 C 30.329 100.839,30.069 100.433,30.069 100.224 C 30.069 100.016,29.888 99.775,29.667 99.691 C 29.389 99.584,29.313 99.295,29.422 98.752 C 29.569 98.017,29.511 97.957,28.514 97.801 C 27.928 97.709,27.138 97.453,26.759 97.231 C 26.379 97.009,25.479 96.554,24.759 96.221 C 24.038 95.887,23.448 95.457,23.448 95.265 C 23.448 92.351,16.991 96.297,15.653 100.030 C 14.381 103.579,15.695 105.674,20.441 107.664 C 24.652 109.429,24.723 109.820,21.429 113.137 C 18.211 116.377,17.681 117.264,17.218 120.191 C 16.402 125.343,15.551 127.914,13.542 131.306 C 12.956 132.295,11.535 135.072,10.383 137.478 C 8.484 141.442,5.504 146.207,4.922 146.207 C 4.271 146.207,2.466 148.283,2.199 149.340 C 2.040 149.969,1.666 150.934,1.369 151.486 C 0.665 152.791,0.686 153.274,1.471 153.788 C 2.082 154.189,2.102 154.298,1.864 155.933 C 1.545 158.121,1.794 162.412,2.516 167.169 C 3.621 174.452,4.055 175.969,9.743 192.471 C 11.406 197.298,12.961 202.806,15.955 214.483 C 20.744 233.158,21.340 235.455,21.426 235.563 C 22.917 237.443,12.395 198.506,8.351 187.172 C 3.382 173.251,1.001 160.645,2.307 155.172 C 2.576 154.049,4.447 152.744,6.057 152.557 L 7.297 152.414 8.039 150.483 C 8.446 149.422,8.903 148.356,9.053 148.116 C 9.204 147.875,12.349 145.964,16.043 143.868 C 25.461 138.524,27.622 137.230,30.165 135.412 C 31.391 134.536,32.419 133.844,32.449 133.875 C 32.480 133.906,33.002 135.078,33.609 136.479 C 37.123 144.584,41.918 148.082,46.363 145.784 C 46.877 145.518,47.531 145.428,48.201 145.532 C 48.950 145.648,49.760 145.497,51.092 144.991 C 52.860 144.320,52.979 144.309,53.741 144.746 C 54.476 145.169,54.657 145.170,56.083 144.764 C 58.079 144.197,58.291 144.412,57.926 146.641 C 57.267 150.665,57.526 151.944,60.268 158.207 C 63.482 165.549,64.827 170.507,63.490 170.082 C 62.711 169.835,62.690 170.547,63.448 171.511 C 63.868 172.044,64.000 172.630,64.000 173.955 C 64.000 177.648,65.092 179.862,66.912 179.862 C 67.400 179.862,67.714 180.135,68.103 180.897 C 69.160 182.967,70.154 183.330,72.767 182.599 C 74.326 182.163,74.319 181.561,72.840 189.575 L 71.531 196.668 70.376 198.198 C 65.113 205.169,54.791 216.855,45.728 226.105 C 39.085 232.884,39.013 232.211,46.759 235.666 C 49.641 236.952,53.347 238.639,54.994 239.415 C 57.444 240.569,58.446 240.884,60.511 241.149 C 61.899 241.327,63.069 241.496,63.110 241.525 C 63.152 241.553,62.243 246.653,61.090 252.857 C 59.938 259.062,58.802 265.197,58.566 266.490 C 58.165 268.692,58.070 268.894,57.082 269.637 C 56.255 270.259,56.081 270.532,56.276 270.897 C 56.432 271.189,56.419 271.471,56.239 271.650 C 56.041 271.848,56.090 272.202,56.397 272.796 C 56.749 273.475,56.765 273.655,56.473 273.655 C 55.717 273.655,55.285 276.442,55.957 276.986 L 56.542 277.460 55.458 278.577 C 54.248 279.824,53.677 280.808,53.391 282.138 C 53.162 283.200,53.238 283.185,51.805 282.453 C 50.923 282.004,50.379 281.910,49.401 282.040 L 48.137 282.208 47.466 280.943 C 47.097 280.247,46.150 279.099,45.360 278.391 C 43.997 277.169,43.914 277.016,43.728 275.379 C 43.528 273.624,43.692 273.157,44.114 274.276 C 44.305 274.781,44.386 274.600,44.552 273.302 C 44.727 271.929,44.803 271.774,45.103 272.184 C 45.408 272.602,45.474 272.519,45.646 271.504 C 45.832 270.400,46.326 269.638,46.362 270.398 C 46.398 271.132,46.876 269.491,46.999 268.216 C 47.068 267.490,47.260 266.547,47.425 266.120 C 48.765 262.645,45.048 256.137,41.983 256.592 C 41.727 256.630,41.064 256.507,40.511 256.318 C 39.041 255.818,36.138 257.262,36.138 258.494 C 36.138 258.601,35.436 259.542,34.579 260.586 C 32.536 263.072,30.883 267.206,32.276 266.345 C 32.428 266.251,32.552 266.422,32.552 266.724 C 32.552 267.696,32.049 268.637,31.424 268.835 C 29.764 269.362,27.100 272.871,26.194 275.724 C 25.648 277.443,22.792 280.276,21.606 280.276 C 20.456 280.276,17.909 281.294,15.700 282.635 C 14.362 283.448,13.610 283.699,11.945 283.885 C 7.454 284.389,5.678 286.852,7.367 290.237 C 7.597 290.698,7.961 291.143,8.176 291.225 C 8.402 291.312,8.503 291.580,8.416 291.856 C 8.129 292.759,8.551 293.241,9.627 293.241 C 10.827 293.241,13.178 291.158,12.874 290.365 C 12.768 290.089,12.858 289.931,13.121 289.931 C 13.349 289.931,13.787 289.506,14.093 288.986 L 14.651 288.041 18.438 287.952 C 23.406 287.834,24.144 287.488,26.801 284.024 C 29.254 280.826,29.620 280.566,30.237 281.579 C 31.604 283.820,32.643 285.306,34.147 287.172 C 35.936 289.391,35.976 290.207,34.293 290.207 C 30.549 290.207,28.443 295.257,30.043 300.398 C 31.612 305.440,35.597 306.311,38.208 302.182 C 39.422 300.260,39.401 300.636,38.026 305.302 C 37.838 305.942,37.777 306.559,37.891 306.673 C 38.352 307.133,39.075 305.101,39.333 302.621 C 39.420 301.786,39.628 300.822,39.795 300.477 C 40.004 300.047,40.010 299.762,39.815 299.566 C 39.488 299.240,39.671 297.866,40.013 298.077 C 40.137 298.154,40.382 298.928,40.558 299.798 C 41.523 304.578,46.262 310.069,49.423 310.069 C 50.302 310.069,49.976 315.701,48.833 320.276 C 48.061 323.367,47.993 325.793,48.680 325.793 C 49.720 325.793,50.412 322.539,50.793 315.862 C 50.962 312.903,51.134 310.445,51.175 310.398 C 51.216 310.352,51.915 311.019,52.728 311.882 C 55.504 314.825,59.064 317.484,64.386 320.590 C 66.683 321.931,67.477 322.545,67.749 323.194 C 67.945 323.662,68.284 324.192,68.501 324.372 C 69.062 324.838,69.276 326.531,69.259 330.378 C 69.246 333.315,69.311 333.807,69.794 334.422 C 70.188 334.922,70.345 335.542,70.347 336.595 C 70.348 337.406,70.598 339.683,70.903 341.655 C 71.882 347.984,71.957 354.597,71.034 353.103 C 70.941 352.952,70.561 352.828,70.191 352.828 C 69.260 352.828,69.298 353.743,70.248 354.175 L 70.978 354.508 69.429 355.889 C 66.497 358.502,66.944 361.048,70.472 361.820 C 71.037 361.944,72.246 362.942,74.176 364.879 C 79.610 370.330,84.138 371.115,84.138 366.607 C 84.138 364.673,83.746 363.771,82.028 361.742 C 81.361 360.956,80.628 359.780,80.399 359.129 C 80.169 358.479,79.754 357.695,79.475 357.387 C 79.184 357.066,78.899 356.198,78.804 355.350 C 78.620 353.695,78.263 353.103,77.449 353.103 C 76.629 353.103,76.892 345.265,77.903 339.586 C 78.295 337.386,78.617 335.057,78.618 334.410 C 78.621 333.251,78.643 333.225,80.133 332.566 C 82.924 331.331,83.456 330.339,82.598 327.966 C 82.358 327.302,81.991 326.122,81.782 325.344 C 80.779 321.595,79.453 319.799,74.873 315.987 C 73.155 314.556,70.782 312.245,69.599 310.851 C 63.679 303.873,62.352 302.406,60.793 301.119 C 59.378 299.951,58.233 298.550,58.541 298.364 C 58.585 298.337,58.976 298.093,59.410 297.821 L 60.198 297.327 60.998 298.297 C 62.007 299.522,63.498 300.057,66.483 300.267 C 69.984 300.513,71.804 301.026,73.594 302.270 C 75.575 303.647,76.353 303.839,77.851 303.317 C 79.428 302.767,79.344 302.742,80.146 304.013 C 80.567 304.680,81.597 305.615,82.701 306.333 C 85.765 308.326,87.191 310.114,86.407 310.981 C 86.035 311.392,86.016 311.575,86.298 312.027 C 86.595 312.504,86.530 312.685,85.792 313.423 C 81.428 317.787,83.866 321.098,91.448 321.103 C 95.640 321.106,96.115 321.293,97.897 323.638 C 102.505 329.701,110.449 329.441,107.322 323.329 C 106.977 322.656,105.468 320.877,103.969 319.376 C 102.469 317.875,101.241 316.562,101.241 316.457 C 101.241 315.890,96.208 311.662,95.967 312.026 C 95.365 312.936,92.245 307.906,91.553 304.912 C 91.234 303.528,91.249 303.455,92.125 302.090 C 93.994 299.176,93.833 298.487,90.453 294.920 C 88.371 292.723,87.963 292.414,87.143 292.413 C 86.628 292.412,85.772 292.146,85.241 291.822 C 82.737 290.291,76.294 288.674,68.414 287.600 C 61.580 286.668,61.241 286.565,61.241 285.417 C 61.241 283.928,60.674 281.327,60.107 280.216 C 59.581 279.184,59.581 279.172,60.109 279.172 C 60.892 279.172,60.952 278.625,60.308 277.382 C 59.486 275.798,59.293 274.224,59.834 273.536 C 60.390 272.830,60.465 271.134,59.948 270.994 C 59.673 270.920,59.242 270.448,58.989 269.946 C 58.482 268.939,58.169 270.945,62.214 249.234 C 62.893 245.588,63.448 242.392,63.448 242.130 C 63.448 241.275,68.228 241.954,71.862 243.325 C 74.099 244.169,76.886 246.928,77.698 249.103 C 78.145 250.300,78.404 250.638,78.926 250.704 C 84.345 251.386,90.150 254.642,94.482 259.429 C 95.590 260.653,96.947 262.152,97.498 262.759 L 98.499 263.862 99.234 262.897 C 102.182 259.024,106.210 256.163,109.931 255.300 C 112.606 254.680,112.635 254.707,112.426 257.587 C 112.224 260.380,111.748 264.715,111.555 265.517 C 111.442 265.987,111.464 266.002,111.705 265.621 C 112.064 265.053,112.915 261.374,113.516 257.793 C 113.771 256.276,114.015 254.999,114.058 254.955 C 114.703 254.301,121.377 256.982,124.721 259.238 C 127.671 261.229,127.489 260.755,127.628 266.822 C 127.695 269.746,127.913 273.938,128.113 276.138 L 128.475 280.138 128.512 276.414 C 128.560 271.509,129.135 262.897,129.415 262.897 C 129.860 262.897,130.135 263.917,130.302 266.188 C 130.527 269.243,130.913 269.570,131.162 266.917 C 131.269 265.768,131.447 264.828,131.557 264.828 C 131.667 264.828,133.053 265.339,134.637 265.964 C 136.221 266.589,139.566 267.909,142.069 268.896 C 150.701 272.301,157.492 275.860,162.203 279.446 L 164.372 281.096 164.255 283.100 C 164.191 284.202,163.944 294.228,163.705 305.379 C 163.466 316.531,163.219 325.818,163.155 326.017 C 162.988 326.538,161.436 325.586,160.958 324.669 C 158.609 320.164,149.503 319.941,148.348 324.360 C 148.234 324.796,148.411 324.711,149.144 323.977 C 150.346 322.776,151.011 322.734,149.887 323.931 C 149.424 324.424,148.630 325.448,148.122 326.207 L 147.198 327.586 148.249 326.791 C 149.712 325.684,149.164 326.711,147.161 328.828 C 145.435 330.652,144.869 331.699,144.664 333.444 C 144.580 334.167,144.284 335.814,144.007 337.103 C 143.489 339.519,143.119 341.920,143.359 341.310 C 143.633 340.614,143.932 340.998,144.070 342.225 C 144.195 343.334,144.116 343.588,143.406 344.363 C 141.909 345.995,141.652 347.529,141.685 354.621 C 141.720 361.985,141.911 363.073,143.314 363.901 C 144.281 364.471,144.411 364.705,144.681 366.345 C 144.839 367.309,144.837 367.311,142.626 368.524 C 136.740 371.751,136.404 374.523,141.160 380.615 C 143.297 383.351,144.082 383.712,146.483 383.063 L 148.000 382.653 149.088 383.729 L 150.176 384.805 150.191 387.380 C 150.211 390.711,150.614 391.448,152.410 391.448 C 153.843 391.448,154.207 391.005,154.207 389.260 C 154.207 388.643,154.277 388.138,154.363 388.138 C 154.784 388.138,155.737 388.843,156.515 389.728 C 157.672 391.047,159.429 392.675,161.931 394.748 C 163.069 395.691,165.769 398.138,167.931 400.185 L 171.862 403.908 171.868 407.264 C 171.882 414.890,174.432 421.009,179.803 426.304 L 182.000 428.470 181.859 431.446 C 181.649 435.866,181.789 436.107,184.828 436.569 C 185.510 436.672,186.379 436.975,186.759 437.242 C 189.585 439.232,194.941 439.011,195.705 436.874 C 196.029 435.968,195.538 435.380,193.341 434.046 C 192.470 433.516,191.500 432.668,191.187 432.161 C 190.359 430.821,188.343 429.054,187.409 428.849 C 186.772 428.709,186.301 428.194,185.180 426.405 C 180.755 419.346,179.567 416.027,179.183 409.655 C 178.935 405.547,178.514 402.859,177.845 401.105 C 177.526 400.270,177.295 399.437,177.332 399.254 C 177.506 398.374,175.044 394.341,170.696 388.386 C 169.411 386.626,168.278 385.054,168.178 384.893 C 168.079 384.732,168.204 384.242,168.455 383.803 L 168.913 383.005 173.215 384.458 C 177.652 385.956,183.511 387.489,185.865 387.768 L 187.206 387.927 187.516 390.998 C 188.082 396.605,190.074 400.516,194.806 405.312 C 197.122 407.659,197.191 407.766,196.944 408.626 C 195.562 413.446,197.229 415.166,203.290 415.171 C 204.779 415.172,205.908 415.369,207.428 415.894 C 211.127 417.171,214.664 416.402,214.843 414.280 C 214.942 413.105,214.610 412.855,212.596 412.592 C 210.150 412.273,208.958 411.537,207.753 409.604 C 205.576 406.111,204.240 405.087,203.315 406.201 C 202.817 406.801,202.091 406.302,201.426 404.901 C 195.914 393.293,195.397 391.876,194.792 386.705 C 194.346 382.894,194.172 382.673,188.639 378.896 C 185.047 376.444,175.929 372.045,168.552 369.204 C 163.732 367.348,163.930 367.449,164.489 367.136 C 165.468 366.588,164.723 362.284,163.458 361.186 C 162.791 360.607,162.759 360.441,162.759 357.650 C 162.759 353.412,162.615 353.546,166.909 353.783 C 174.674 354.213,176.629 352.152,173.857 346.457 C 172.597 343.868,165.765 334.118,164.299 332.818 C 163.459 332.072,163.377 331.878,163.549 331.038 L 163.741 330.095 164.123 331.324 L 164.504 332.552 164.781 331.634 C 165.004 330.893,164.948 330.457,164.485 329.362 C 163.988 328.186,163.973 328.040,164.373 328.254 C 165.030 328.606,165.720 329.418,166.037 330.213 C 166.298 330.867,166.311 330.856,166.327 329.949 C 166.342 329.162,166.110 328.776,164.952 327.660 L 163.559 326.317 164.107 304.096 C 164.408 291.874,164.728 281.801,164.819 281.710 C 165.111 281.418,170.463 286.953,172.550 289.705 C 176.587 295.031,178.413 298.879,180.286 306.009 C 183.769 319.264,185.846 320.395,197.103 315.165 C 203.100 312.380,205.964 311.639,215.172 310.491 C 222.558 309.570,226.377 308.868,230.414 307.690 C 230.832 307.568,230.860 307.646,230.621 308.275 C 230.255 309.237,230.272 311.655,230.672 315.489 C 231.080 319.410,231.436 319.013,231.450 314.621 C 231.463 310.583,231.827 309.597,233.957 307.837 C 234.766 307.168,235.867 306.183,236.404 305.648 C 236.940 305.113,237.876 304.314,238.483 303.873 C 240.814 302.179,242.798 300.303,243.152 299.455 C 243.355 298.969,244.312 297.776,245.278 296.803 C 246.244 295.830,248.096 293.730,249.394 292.135 C 251.745 289.246,254.613 286.683,257.458 284.928 L 258.956 284.003 259.276 281.946 C 259.864 278.164,260.220 277.977,266.144 278.332 L 270.469 278.591 273.176 277.318 L 275.883 276.045 277.459 276.681 C 279.611 277.551,279.536 277.433,280.802 281.931 C 282.574 288.229,284.730 291.973,287.958 294.358 L 288.881 295.040 288.005 302.210 C 286.949 310.858,287.082 310.350,286.115 309.423 C 285.140 308.489,285.018 308.501,284.566 309.575 C 284.313 310.179,283.899 310.560,283.269 310.772 C 282.296 311.100,282.049 311.608,282.326 312.711 C 282.433 313.140,282.691 313.379,283.045 313.379 C 283.506 313.379,283.568 313.505,283.421 314.138 C 283.042 315.771,282.592 316.138,280.971 316.138 C 279.588 316.138,279.412 316.213,278.701 317.103 C 278.278 317.634,277.714 318.069,277.448 318.069 C 277.183 318.069,276.966 318.193,276.966 318.345 C 276.966 318.497,277.138 318.621,277.350 318.621 C 277.561 318.621,277.806 318.807,277.893 319.034 C 278.113 319.608,279.126 319.551,280.348 318.897 C 282.097 317.959,284.138 318.478,284.138 319.860 C 284.138 320.322,282.570 321.528,280.281 322.828 C 278.297 323.955,276.221 326.070,271.953 331.312 C 270.037 333.665,267.895 336.003,267.192 336.508 C 263.761 338.972,262.266 342.255,261.661 348.655 L 261.207 353.448 260.259 354.343 C 259.122 355.415,258.850 357.608,259.823 357.863 C 261.559 358.317,259.919 365.681,257.555 368.045 C 257.003 368.597,256.552 369.315,256.552 369.641 C 256.552 370.934,254.918 372.830,251.025 376.056 C 249.020 377.717,248.228 379.105,248.901 379.778 C 249.472 380.349,249.694 380.281,255.131 377.876 L 258.814 376.247 261.399 376.436 C 265.193 376.715,265.534 376.445,265.222 373.418 C 265.094 372.183,265.013 370.502,265.042 369.682 C 265.079 368.613,264.974 368.104,264.669 367.881 C 264.186 367.528,264.990 364.909,266.510 361.885 L 267.295 360.322 268.751 360.709 C 271.570 361.460,271.724 361.337,271.724 358.350 C 271.724 356.678,271.826 356.319,272.638 355.111 C 273.141 354.364,274.079 352.520,274.722 351.014 C 277.051 345.560,277.265 345.188,278.866 343.808 C 279.712 343.079,282.703 340.236,285.514 337.490 C 290.445 332.672,290.673 332.489,292.002 332.292 C 292.759 332.179,294.350 331.714,295.536 331.258 C 296.722 330.802,297.720 330.472,297.754 330.524 C 297.787 330.577,298.116 331.284,298.484 332.094 C 299.265 333.815,300.288 334.767,301.793 335.172 C 304.623 335.934,306.621 338.991,306.621 342.558 C 306.621 345.385,306.648 345.438,308.630 346.522 C 310.103 347.327,311.602 350.830,311.517 353.267 C 311.473 354.543,311.595 355.594,311.862 356.234 C 312.090 356.778,312.279 358.066,312.282 359.095 C 312.291 361.988,312.674 362.334,315.442 361.949 C 318.493 361.525,319.172 360.942,319.172 358.747 C 319.172 357.363,317.983 355.034,317.275 355.034 C 317.144 355.034,316.955 354.525,316.855 353.902 C 316.755 353.279,316.474 352.383,316.230 351.911 C 315.545 350.587,315.394 346.551,315.987 345.405 C 317.694 342.104,317.672 339.882,315.915 338.206 C 314.476 336.834,313.285 334.205,312.819 331.376 C 312.551 329.754,311.609 327.502,309.905 324.414 C 309.001 322.777,308.813 322.211,309.002 321.706 C 309.382 320.693,309.284 319.358,308.693 317.473 C 308.392 316.511,308.143 315.247,308.141 314.663 C 308.140 314.080,307.936 312.907,307.689 312.057 C 306.499 307.965,308.665 302.057,312.816 298.069 C 316.323 294.699,316.548 290.130,313.368 286.831 C 312.616 286.051,312.000 285.352,312.000 285.279 C 312.000 284.805,313.151 284.060,314.462 283.687 C 320.844 281.868,323.318 276.818,320.222 271.932 C 318.073 268.541,312.164 266.299,310.211 268.134 C 309.291 268.998,308.574 268.774,308.456 267.584 C 308.304 266.049,308.987 259.879,309.424 258.832 C 310.030 257.382,310.830 253.246,311.464 248.283 C 312.003 244.071,312.089 243.740,312.966 242.518 C 313.932 241.174,315.699 237.607,317.288 233.793 C 318.105 231.832,318.188 231.402,318.033 229.931 C 316.702 217.285,318.134 215.173,325.517 218.893 C 327.276 219.779,327.365 219.741,327.581 218.018 C 328.164 213.353,330.594 209.006,334.032 206.483 C 334.762 205.947,335.162 205.437,335.166 205.037 C 335.169 204.697,335.598 203.861,336.118 203.180 C 336.637 202.499,337.142 201.691,337.240 201.385 C 337.337 201.078,337.550 200.828,337.714 200.828 C 338.200 200.828,340.413 199.336,340.413 199.008 C 340.416 197.599,342.403 195.355,344.966 193.867 C 346.028 193.251,347.477 192.326,348.186 191.813 C 349.408 190.929,349.484 190.909,349.651 191.436 C 349.748 191.741,350.409 192.454,351.121 193.019 C 351.832 193.584,353.221 194.810,354.207 195.741 C 356.059 197.491,356.984 198.048,359.933 199.187 C 360.931 199.573,361.725 200.060,361.814 200.342 C 361.899 200.611,362.253 201.171,362.600 201.588 C 362.947 202.004,363.312 202.789,363.412 203.333 C 363.512 203.876,364.025 205.037,364.553 205.913 L 365.511 207.505 364.575 208.599 C 364.061 209.200,363.410 210.430,363.130 211.332 C 362.683 212.769,362.451 213.084,361.241 213.891 C 358.014 216.044,354.984 219.408,353.179 222.845 L 352.210 224.690 352.396 228.138 C 352.499 230.034,352.567 235.161,352.547 239.531 C 352.504 249.331,352.485 249.406,348.793 254.421 C 346.874 257.028,347.390 258.438,350.469 259.007 C 352.596 259.401,353.567 258.950,354.874 256.966 C 355.473 256.055,356.501 254.499,357.159 253.506 C 358.522 251.451,359.008 249.396,358.729 246.867 C 358.597 245.670,358.714 244.767,359.250 242.867 C 360.610 238.037,360.689 237.496,360.638 233.381 L 360.587 229.382 361.672 227.946 C 362.322 227.085,363.835 225.740,365.447 224.592 C 368.041 222.743,369.647 221.269,370.556 219.903 C 371.155 219.003,371.457 221.378,371.186 224.847 C 370.969 227.620,371.396 228.360,372.457 227.050 C 373.106 226.248,373.098 225.426,372.414 223.034 C 371.113 218.486,371.736 217.397,375.896 216.952 C 377.848 216.743,379.310 215.816,379.310 214.787 C 379.310 214.552,379.679 214.168,380.130 213.935 C 381.105 213.431,381.611 212.593,381.381 211.867 C 381.274 211.530,381.619 210.628,382.344 209.347 C 384.457 205.620,385.368 199.879,384.056 198.567 C 383.460 197.970,383.633 196.138,384.286 196.138 C 385.411 196.138,389.048 198.848,390.057 200.440 C 392.180 203.787,395.125 205.370,397.218 204.288 C 399.142 203.293,399.556 198.767,397.775 198.201 C 397.444 198.096,396.791 197.575,396.325 197.044 C 395.540 196.150,395.385 196.089,394.237 196.218 C 393.349 196.318,392.729 196.214,392.052 195.851 C 391.081 195.331,388.966 195.337,387.724 195.864 C 386.591 196.344,386.325 196.329,385.517 195.738 C 385.062 195.404,384.472 195.052,384.207 194.954 C 383.941 194.856,383.723 194.555,383.722 194.285 C 383.714 192.730,382.550 181.571,382.194 179.644 C 381.328 174.956,379.739 171.537,376.782 167.999 L 375.219 166.129 376.060 165.960 C 377.122 165.748,378.818 163.995,378.704 163.228 C 378.579 162.383,377.931 162.301,377.931 163.130 C 377.931 164.451,376.322 165.322,375.129 164.646 L 374.483 164.280 375.241 164.191 C 376.285 164.068,376.196 163.697,374.828 162.479 C 374.183 161.904,373.748 161.340,373.860 161.225 C 373.973 161.109,374.293 161.221,374.572 161.473 C 375.581 162.386,375.583 161.689,374.576 160.233 C 374.297 159.831,374.069 159.107,374.069 158.626 C 374.069 157.091,371.384 155.310,369.070 155.310 C 368.803 155.310,368.508 155.186,368.414 155.034 C 368.320 154.883,368.492 154.759,368.795 154.759 C 369.098 154.759,369.409 154.658,369.485 154.535 C 369.671 154.235,365.699 153.543,364.936 153.743 C 364.475 153.863,364.410 153.824,364.659 153.576 C 364.838 153.397,365.769 153.249,366.740 153.247 C 368.819 153.240,368.864 152.940,366.823 152.689 C 364.247 152.372,359.007 154.492,358.508 156.054 C 358.287 156.747,355.621 158.226,355.467 157.741 C 355.404 157.542,352.422 137.551,348.840 113.315 L 342.329 69.251 342.883 68.165 C 343.401 67.148,343.417 66.882,343.128 64.040 C 342.899 61.796,342.899 60.375,343.127 58.609 C 343.351 56.878,343.353 56.061,343.135 55.654 C 342.219 53.942,345.257 45.994,347.005 45.528 C 348.609 45.102,355.160 43.953,358.966 43.432 C 362.247 42.982,363.634 42.481,361.586 42.484 C 359.903 42.487,351.222 43.319,349.126 43.678 C 347.976 43.875,347.037 43.966,347.041 43.880 C 347.049 43.681,348.770 40.255,351.728 34.552 L 354.053 30.069 355.251 30.069 C 355.911 30.069,356.701 30.203,357.007 30.367 C 357.718 30.748,357.905 30.552,357.681 29.659 C 357.532 29.066,356.394 28.091,355.495 27.787 C 355.369 27.744,355.422 27.368,355.612 26.951 C 356.006 26.086,356.510 26.103,356.640 26.987 C 356.764 27.830,357.234 27.731,357.591 26.787 C 357.859 26.077,357.963 26.020,358.534 26.280 C 359.307 26.633,359.672 26.355,359.283 25.711 C 358.805 24.919,356.676 24.000,355.319 24.000 C 354.190 24.000,354.029 23.918,353.697 23.166 C 352.775 21.084,350.028 21.016,347.655 23.017 C 346.479 24.009,346.319 23.002,347.481 21.925 C 348.242 21.220,348.217 20.219,347.446 20.514 C 347.123 20.638,347.034 20.434,347.034 19.569 C 347.034 18.317,346.558 17.958,345.523 18.430 C 345.013 18.662,344.841 18.640,344.722 18.328 C 344.498 17.747,343.935 17.842,344.121 18.430 C 344.265 18.885,343.728 19.461,342.453 20.216 C 342.256 20.334,341.929 19.569,341.528 18.049 C 340.966 15.921,337.539 8.476,336.458 7.035 C 335.411 5.638,335.900 7.113,337.607 10.499 C 340.151 15.544,341.329 19.481,340.857 21.360 C 340.549 22.589,340.224 22.135,340.046 20.226 C 339.951 19.213,339.734 18.251,339.563 18.089 C 339.335 17.871,339.294 18.013,339.410 18.621 C 339.881 21.098,339.911 21.517,339.617 21.517 C 339.448 21.517,339.310 21.145,339.310 20.690 C 339.310 19.368,338.596 19.680,338.206 21.172 L 337.865 22.483 337.489 20.697 C 336.932 18.053,333.754 14.568,332.783 15.539 C 332.658 15.663,332.804 15.900,333.106 16.064 C 336.857 18.098,337.590 22.845,334.585 25.647 C 332.138 27.929,331.064 27.944,332.709 25.672 C 333.482 24.605,333.516 24.473,333.094 24.165 C 332.672 23.857,332.720 23.688,333.626 22.271 C 334.980 20.155,334.862 19.158,333.385 20.238 C 333.102 20.444,332.672 20.561,332.428 20.497 C 332.149 20.425,331.283 21.108,330.104 22.329 C 329.070 23.400,328.071 24.276,327.884 24.276 C 327.697 24.276,326.380 25.079,324.958 26.060 C 323.536 27.041,322.313 27.784,322.241 27.712 C 322.114 27.586,326.077 23.792,326.756 23.389 C 327.432 22.988,329.686 20.136,329.529 19.881 C 329.429 19.719,328.863 19.769,328.062 20.012 C 327.345 20.230,326.742 20.409,326.722 20.411 C 326.702 20.412,326.620 20.166,326.541 19.862 C 326.461 19.559,326.183 19.310,325.923 19.310 C 325.553 19.310,325.518 19.393,325.764 19.689 C 326.217 20.235,325.927 20.741,324.754 21.449 C 324.188 21.791,323.437 22.276,323.087 22.528 C 322.464 22.975,322.454 22.970,322.622 22.300 C 322.838 21.438,322.198 20.850,321.243 21.033 C 320.419 21.190,320.259 19.719,320.966 18.483 C 321.487 17.570,321.487 17.003,320.966 17.203 C 320.658 17.321,320.552 17.162,320.552 16.578 C 320.552 15.549,319.255 10.455,318.904 10.104 C 318.384 9.584,318.385 10.083,318.904 11.958 C 319.191 12.992,319.554 14.728,319.710 15.816 L 319.995 17.793 319.111 18.552 C 317.775 19.699,317.258 19.579,317.448 18.165 C 317.626 16.832,317.136 16.871,316.868 18.210 C 316.718 18.959,316.600 19.046,315.798 18.996 C 314.664 18.924,313.179 19.661,312.249 20.757 L 311.532 21.601 311.353 20.480 C 310.961 18.030,308.619 14.069,307.563 14.069 C 306.820 14.069,306.890 14.340,308.108 16.175 C 310.234 19.378,310.809 22.353,309.537 23.569 C 308.744 24.327,308.665 24.348,308.331 23.891 C 307.991 23.426,307.921 23.432,306.940 24.011 C 306.372 24.346,305.854 24.567,305.789 24.502 C 305.535 24.247,307.381 22.345,307.882 22.345 C 308.422 22.345,308.550 21.917,308.246 21.126 C 308.024 20.547,307.680 20.576,306.828 21.246 C 306.423 21.565,305.908 21.735,305.624 21.645 C 305.352 21.559,304.823 21.688,304.449 21.933 C 303.877 22.308,303.679 22.321,303.189 22.017 C 302.698 21.711,302.481 21.728,301.787 22.125 C 300.865 22.652,300.808 22.537,301.331 21.206 C 301.764 20.106,301.736 18.418,301.284 18.267 C 300.400 17.972,296.605 21.602,295.144 24.138 C 294.087 25.974,294.139 25.415,295.310 22.345 C 296.945 18.060,295.974 17.489,293.904 21.517 L 293.124 23.034 292.969 21.778 C 292.884 21.087,292.538 20.170,292.200 19.741 C 291.842 19.285,291.586 18.574,291.586 18.032 C 291.586 17.391,291.458 17.103,291.172 17.103 C 290.875 17.103,290.759 17.408,290.759 18.187 C 290.759 19.233,290.706 19.294,289.228 19.971 C 288.385 20.356,287.342 20.924,286.909 21.232 C 285.843 21.992,285.710 21.956,285.019 20.726 C 284.348 19.532,283.665 18.864,283.393 19.136 C 283.293 19.235,283.468 19.781,283.781 20.348 C 284.876 22.332,284.585 24.000,283.143 24.000 C 282.952 24.000,282.721 24.237,282.629 24.526 C 282.537 24.816,282.280 25.122,282.058 25.207 C 281.529 25.410,281.535 25.388,282.380 23.877 C 283.474 21.918,282.895 21.817,280.744 23.592 L 278.897 25.116 278.897 23.316 C 278.897 22.301,278.776 21.517,278.621 21.517 C 278.469 21.517,278.336 22.045,278.325 22.690 C 278.297 24.435,278.074 24.763,276.227 25.787 C 274.449 26.772,274.207 26.771,274.207 25.776 C 274.207 24.917,273.204 21.760,272.721 21.100 C 272.033 20.158,271.949 20.832,272.538 22.580 C 273.659 25.909,272.991 28.319,271.468 26.439 C 270.825 25.645,270.511 25.895,269.394 28.089 C 268.420 30.004,266.789 32.126,266.770 31.505 C 266.764 31.308,267.379 30.228,268.138 29.103 C 270.366 25.801,269.849 25.504,266.940 28.413 C 264.677 30.676,264.312 30.701,265.839 28.486 C 269.052 23.827,269.035 22.492,265.780 23.729 C 265.129 23.977,265.063 23.952,265.228 23.522 C 265.578 22.616,266.199 19.729,266.194 19.034 C 266.187 18.041,265.635 18.797,264.180 21.788 L 263.042 24.128 262.587 21.237 C 261.829 16.422,260.943 13.517,260.232 13.517 C 259.749 13.517,259.746 13.495,260.571 16.696 C 261.552 20.505,261.848 25.933,261.075 25.927 C 259.937 25.918,259.687 25.464,260.400 24.704 C 260.925 24.145,260.970 24.000,260.616 24.000 C 260.371 24.000,260.086 24.137,259.982 24.305 C 259.698 24.765,259.320 24.024,259.315 22.999 C 259.304 20.937,258.088 21.117,256.958 23.347 L 256.138 24.966 256.061 22.621 C 256.004 20.880,255.873 20.192,255.552 19.950 C 255.002 19.536,254.345 19.778,254.345 20.394 C 254.345 21.088,253.510 23.420,253.192 23.617 C 252.253 24.197,252.578 21.455,253.779 18.653 C 254.204 17.663,254.276 17.215,254.055 16.949 C 253.841 16.691,253.840 16.429,254.050 16.036 C 254.483 15.226,254.440 15.172,253.343 15.172 C 251.709 15.172,250.607 16.069,249.547 18.261 L 248.607 20.204 248.659 17.908 L 248.712 15.613 249.804 14.818 C 250.405 14.381,251.082 13.919,251.308 13.791 C 252.262 13.252,251.188 13.184,249.955 13.704 L 248.612 14.272 248.447 13.274 C 248.192 11.734,248.228 11.596,248.966 11.260 C 249.666 10.941,249.922 10.207,249.333 10.207 C 249.155 10.207,248.345 10.582,247.533 11.041 L 246.055 11.874 246.241 11.110 C 246.343 10.689,246.593 9.786,246.796 9.103 C 247.765 5.855,246.910 6.626,245.297 10.457 C 244.051 13.415,243.135 14.896,242.552 14.897 C 242.438 14.897,242.345 12.507,242.345 9.586 C 242.345 5.050,242.285 4.276,241.931 4.276 C 241.596 4.276,241.486 4.892,241.355 7.518 C 241.266 9.302,241.111 10.843,241.010 10.944 C 240.910 11.044,240.828 10.857,240.828 10.529 C 240.828 9.770,240.388 9.758,239.987 10.506 C 239.423 11.561,239.445 10.875,240.032 9.136 C 240.683 7.210,240.508 6.642,239.625 7.811 L 239.039 8.587 238.485 6.856 C 238.039 5.462,237.799 5.094,237.251 4.966 C 236.834 4.869,236.512 4.554,236.416 4.148 C 236.253 3.457,235.742 3.112,235.488 3.521 M226.814 11.797 C 227.493 12.379,226.746 13.424,225.165 14.102 C 223.104 14.985,223.041 14.803,224.593 12.432 C 225.501 11.045,225.829 10.952,226.814 11.797 M230.621 11.862 C 230.621 12.169,230.437 12.414,230.207 12.414 C 229.708 12.414,229.674 12.092,230.124 11.641 C 230.569 11.196,230.621 11.219,230.621 11.862 M247.724 13.671 C 247.724 14.624,247.620 15.140,247.448 15.034 C 247.297 14.941,247.172 14.623,247.172 14.329 C 247.172 14.034,246.986 13.793,246.759 13.793 C 246.463 13.793,246.345 14.094,246.345 14.844 C 246.345 16.158,245.720 17.129,245.203 16.619 C 244.637 16.061,245.338 13.949,246.414 12.970 C 247.633 11.861,247.724 11.909,247.724 13.671 M217.919 13.344 C 217.912 13.515,217.736 14.028,217.527 14.483 C 217.149 15.309,217.148 15.308,217.126 13.828 C 217.106 12.541,217.158 12.391,217.517 12.690 C 217.745 12.879,217.925 13.173,217.919 13.344 M213.099 16.138 C 214.264 18.096,214.233 18.516,212.860 19.379 C 211.156 20.450,210.982 20.389,211.194 18.794 C 211.506 16.442,210.740 16.644,208.641 19.468 L 208.040 20.276 208.396 18.897 C 208.889 16.982,209.545 15.507,210.400 14.386 L 211.128 13.431 211.785 14.233 C 212.147 14.674,212.738 15.531,213.099 16.138 M252.457 17.730 C 251.324 19.377,250.597 19.982,250.893 19.032 C 251.146 18.220,252.080 16.824,252.680 16.364 C 253.422 15.794,253.309 16.493,252.457 17.730 M205.638 19.118 C 205.873 19.785,205.701 20.290,204.326 22.977 L 202.743 26.069 202.909 23.326 C 203.163 19.137,204.772 16.656,205.638 19.118 M345.931 20.414 C 345.931 20.869,345.807 21.241,345.655 21.241 C 345.503 21.241,345.379 20.869,345.379 20.414 C 345.379 19.959,345.503 19.586,345.655 19.586 C 345.807 19.586,345.931 19.959,345.931 20.414 M251.312 21.098 C 251.046 21.904,250.910 22.033,250.599 21.775 C 250.277 21.508,250.314 21.335,250.832 20.696 C 251.609 19.737,251.728 19.837,251.312 21.098 M316.414 20.245 C 316.414 20.456,316.170 20.922,315.871 21.280 L 315.329 21.931 315.320 21.057 C 315.311 20.279,315.558 19.952,316.207 19.884 C 316.321 19.872,316.414 20.035,316.414 20.245 M314.595 22.119 C 313.982 23.304,312.535 25.103,312.194 25.103 C 311.795 25.103,312.225 22.892,312.801 21.981 C 314.145 19.860,315.701 19.979,314.595 22.119 M344.828 20.952 C 344.828 21.604,344.586 21.933,343.616 22.600 L 342.404 23.434 342.289 22.450 C 342.187 21.576,342.283 21.392,343.151 20.802 C 344.444 19.924,344.828 19.958,344.828 20.952 M318.403 21.172 C 318.110 21.590,317.534 22.470,317.123 23.130 C 316.196 24.613,316.038 24.510,316.563 22.766 C 317.032 21.210,317.656 20.414,318.406 20.414 C 318.925 20.414,318.925 20.427,318.403 21.172 M290.384 22.138 C 290.084 24.626,289.682 25.745,289.225 25.365 C 289.008 25.186,288.590 25.101,288.295 25.178 C 287.985 25.259,287.698 25.157,287.613 24.935 C 287.532 24.724,287.213 24.552,286.905 24.552 C 286.597 24.552,286.345 24.443,286.345 24.310 C 286.345 24.178,286.273 23.709,286.185 23.270 C 286.017 22.431,287.119 21.544,289.056 20.960 C 290.514 20.519,290.573 20.572,290.384 22.138 M319.724 21.671 C 319.724 22.602,317.544 25.512,317.154 25.101 C 317.042 24.983,319.474 20.696,319.655 20.691 C 319.693 20.690,319.724 21.131,319.724 21.671 M298.476 23.185 C 297.692 24.738,297.029 25.397,296.640 25.008 C 296.373 24.740,298.616 21.584,299.107 21.537 C 299.223 21.526,298.939 22.268,298.476 23.185 M327.172 21.622 C 327.172 21.680,326.707 22.078,326.138 22.507 C 325.433 23.038,325.231 23.115,325.504 22.747 C 326.172 21.846,327.172 21.171,327.172 21.622 M192.966 22.345 C 193.240 22.648,193.341 22.897,193.189 22.897 C 193.037 22.897,192.688 22.648,192.414 22.345 C 192.139 22.041,192.039 21.793,192.190 21.793 C 192.342 21.793,192.691 22.041,192.966 22.345 M339.582 22.828 C 339.570 23.432,339.043 23.834,339.039 23.241 C 339.036 22.900,339.159 22.621,339.310 22.621 C 339.462 22.621,339.584 22.714,339.582 22.828 M314.595 25.607 C 314.052 26.999,313.494 28.138,313.356 28.138 C 312.852 28.138,313.120 26.445,313.793 25.379 C 314.172 24.778,314.483 24.201,314.483 24.096 C 314.483 23.846,315.372 22.866,315.491 22.985 C 315.541 23.035,315.138 24.215,314.595 25.607 M284.964 24.897 L 284.962 26.345 283.880 26.385 C 282.634 26.431,282.704 25.747,284.104 24.207 C 284.993 23.228,284.966 23.207,284.964 24.897 M310.345 23.704 C 310.345 24.039,309.552 24.828,309.215 24.828 C 309.071 24.828,309.156 24.517,309.405 24.138 C 309.857 23.448,310.345 23.223,310.345 23.704 M344.406 24.069 C 343.838 25.990,341.793 27.705,341.793 26.260 C 341.793 25.607,342.265 24.998,343.433 24.144 C 344.593 23.295,344.635 23.292,344.406 24.069 M352.346 24.145 C 352.362 24.293,352.167 24.454,351.912 24.503 C 351.585 24.566,351.500 24.462,351.621 24.146 C 351.800 23.681,352.296 23.680,352.346 24.145 M332.066 25.392 C 331.881 25.689,331.570 25.931,331.376 25.931 C 331.114 25.931,331.139 25.753,331.472 25.244 C 331.995 24.445,332.568 24.588,332.066 25.392 M338.917 26.221 C 338.590 26.975,338.502 27.047,338.494 26.565 C 338.488 26.230,338.638 25.617,338.827 25.202 C 339.333 24.090,339.419 25.063,338.917 26.221 M266.967 25.172 C 266.905 25.362,266.437 25.558,265.927 25.608 C 265.110 25.687,265.043 25.646,265.362 25.263 C 265.795 24.740,267.134 24.665,266.967 25.172 M307.882 25.217 C 307.497 25.681,304.247 27.650,304.104 27.506 C 303.972 27.374,307.635 24.828,307.957 24.828 C 308.094 24.828,308.060 25.003,307.882 25.217 M349.517 25.042 C 349.517 25.690,348.589 26.483,347.830 26.483 C 346.853 26.483,346.983 26.123,348.237 25.358 C 349.170 24.789,349.517 24.703,349.517 25.042 M297.379 25.760 C 297.379 25.969,296.821 26.598,296.138 27.158 C 294.737 28.306,294.676 28.272,295.443 26.769 C 296.047 25.586,297.379 24.891,297.379 25.760 M326.630 26.606 C 326.180 27.333,325.834 27.586,325.288 27.585 C 324.577 27.585,324.594 27.549,325.793 26.510 C 327.255 25.245,327.457 25.268,326.630 26.606 M279.585 27.711 C 278.202 29.330,277.632 29.646,277.946 28.621 C 278.273 27.551,278.501 27.279,279.611 26.642 C 281.098 25.788,281.094 25.945,279.585 27.711 M288.136 27.793 C 288.253 28.676,288.223 29.241,288.060 29.241 C 287.913 29.241,287.396 29.321,286.911 29.418 L 286.030 29.594 286.230 28.521 C 286.718 25.920,287.831 25.494,288.136 27.793 M260.414 28.000 C 260.225 28.228,260.037 28.414,259.996 28.414 C 259.955 28.414,259.850 28.228,259.762 28.000 C 259.652 27.713,259.781 27.586,260.180 27.586 C 260.662 27.586,260.700 27.655,260.414 28.000 M272.002 28.400 C 270.889 29.323,270.779 29.312,271.158 28.314 C 271.366 27.766,271.623 27.588,272.200 27.594 L 272.966 27.601 272.002 28.400 M195.544 30.552 C 195.491 31.210,195.241 31.762,194.859 32.069 C 193.957 32.793,193.929 32.687,194.577 31.035 C 195.268 29.274,195.664 29.076,195.544 30.552 M260.897 29.862 C 260.834 30.052,260.548 30.252,260.262 30.308 C 259.812 30.395,259.792 30.348,260.112 29.963 C 260.549 29.436,261.061 29.370,260.897 29.862 M183.218 31.058 C 183.786 31.352,183.972 31.586,183.785 31.773 C 183.350 32.208,182.568 31.925,182.316 31.241 C 182.043 30.503,182.116 30.488,183.218 31.058 M184.622 34.205 C 183.941 35.862,183.750 35.727,184.208 33.911 C 184.528 32.641,184.696 32.315,184.833 32.704 C 184.935 32.997,184.841 33.672,184.622 34.205 M175.901 37.630 C 175.744 38.961,173.677 43.287,173.353 42.962 C 173.057 42.666,175.546 36.138,175.955 36.138 C 176.022 36.138,175.997 36.809,175.901 37.630 M150.552 37.902 C 151.045 38.357,151.448 38.818,151.448 38.927 C 151.448 39.413,149.657 38.400,149.200 37.655 C 148.222 36.062,148.641 36.139,150.552 37.902 M135.821 39.793 C 135.917 40.590,135.979 42.110,135.960 43.172 L 135.924 45.103 135.699 42.483 C 135.575 41.041,135.409 39.521,135.330 39.103 C 135.251 38.686,135.290 38.345,135.417 38.345 C 135.544 38.345,135.726 38.997,135.821 39.793 M171.578 40.000 C 171.579 40.531,171.265 41.949,170.881 43.151 C 170.497 44.353,170.110 45.874,170.020 46.530 C 169.827 47.936,169.662 48.001,169.025 46.923 C 168.419 45.898,168.430 45.418,169.105 43.232 C 170.480 38.780,171.577 37.347,171.578 40.000 M163.152 40.373 C 162.523 41.498,161.931 41.849,161.931 41.097 C 161.931 40.786,163.620 38.839,163.765 38.983 C 163.823 39.041,163.547 39.667,163.152 40.373 M178.741 43.756 C 178.097 46.142,177.379 47.320,177.379 45.993 C 177.379 45.262,179.010 41.263,179.221 41.474 C 179.280 41.533,179.064 42.560,178.741 43.756 M175.978 43.905 C 175.220 45.391,175.115 45.163,175.658 43.210 C 176.032 41.867,176.142 41.699,176.326 42.196 C 176.477 42.604,176.367 43.143,175.978 43.905 M122.604 51.967 C 122.398 52.788,121.931 52.944,121.931 52.193 C 121.931 51.710,122.483 50.942,122.685 51.144 C 122.740 51.200,122.704 51.570,122.604 51.967 M83.548 58.009 C 84.315 59.357,84.390 59.622,83.982 59.543 C 83.705 59.490,83.030 58.604,82.439 57.517 C 80.484 53.924,81.473 54.363,83.548 58.009 M64.789 55.705 C 65.704 56.171,67.862 58.408,67.862 58.890 C 67.862 59.274,66.132 58.011,64.770 56.631 C 63.201 55.043,63.204 54.896,64.789 55.705 M80.600 58.154 C 81.827 59.484,81.831 59.724,80.619 59.395 C 79.924 59.206,76.966 55.873,76.966 55.279 C 76.966 54.973,79.560 57.025,80.600 58.154 M111.887 58.103 C 111.807 58.312,111.535 58.483,111.283 58.483 C 110.759 58.483,110.849 57.318,111.486 55.862 L 111.848 55.034 111.941 56.379 C 111.991 57.118,111.967 57.894,111.887 58.103 M87.986 58.180 C 88.732 59.643,88.702 59.862,87.754 59.862 C 86.797 59.862,86.639 59.532,86.441 57.107 L 86.294 55.310 86.857 56.191 C 87.167 56.675,87.675 57.571,87.986 58.180 M109.497 58.671 C 109.508 58.850,109.125 59.276,108.646 59.617 L 107.774 60.238 107.956 58.694 C 108.245 56.237,108.432 55.978,108.996 57.256 C 109.260 57.855,109.486 58.492,109.497 58.671 M213.379 56.672 C 231.322 58.597,245.380 71.318,249.132 89.023 C 249.610 91.279,249.712 92.815,249.749 98.345 L 249.793 104.966 245.310 105.041 L 240.828 105.117 240.821 100.903 C 240.814 96.173,240.419 90.293,240.020 88.996 C 238.341 83.534,237.257 81.133,235.105 78.105 C 219.086 55.569,185.081 62.569,178.990 89.655 C 178.548 91.620,178.090 100.367,178.198 104.765 C 178.205 105.039,177.216 105.100,173.724 105.041 L 169.241 104.966 169.262 98.850 C 169.298 88.242,171.032 82.067,176.143 74.345 C 178.959 70.090,185.029 64.113,187.862 62.807 C 188.090 62.702,188.710 62.350,189.241 62.025 C 193.911 59.169,199.088 57.462,205.379 56.705 C 209.363 56.226,209.233 56.227,213.379 56.672 M69.758 58.992 C 69.446 59.106,68.690 58.518,68.690 58.160 C 68.690 58.020,68.989 58.128,69.354 58.401 C 69.719 58.674,69.901 58.939,69.758 58.992 M214.179 68.575 C 220.485 69.810,225.241 72.363,229.408 76.751 C 235.195 82.844,237.014 88.004,237.069 98.483 L 237.103 104.966 209.517 104.966 L 181.931 104.966 181.961 98.759 C 181.994 92.062,182.281 89.926,183.640 86.261 C 188.232 73.876,201.628 66.118,214.179 68.575 M343.416 79.862 C 355.113 158.341,355.297 159.713,354.322 160.836 C 354.120 161.068,353.785 161.663,353.577 162.157 L 353.199 163.057 349.750 159.666 C 345.358 155.350,340.622 148.876,340.120 146.504 C 339.868 145.313,339.526 144.715,338.444 143.571 L 337.085 142.134 337.950 139.412 C 338.426 137.915,339.435 135.160,340.192 133.290 C 341.463 130.149,341.541 129.825,341.221 129.015 C 340.262 126.588,336.627 118.721,335.404 116.424 C 333.600 113.037,333.613 112.702,335.658 109.637 C 336.562 108.281,337.958 106.017,338.760 104.605 L 340.218 102.037 339.637 99.364 C 339.318 97.893,338.974 96.007,338.873 95.172 C 338.702 93.748,336.306 89.629,333.757 86.377 C 332.793 85.146,333.063 83.822,334.647 82.016 C 336.538 79.861,338.462 76.895,340.309 73.287 C 341.151 71.644,341.880 70.340,341.929 70.391 C 341.978 70.441,342.648 74.703,343.416 79.862 M31.195 78.873 C 30.557 79.283,32.837 79.486,37.035 79.394 C 39.325 79.343,40.829 79.201,40.829 79.034 C 40.829 78.680,31.733 78.527,31.195 78.873 M54.685 104.138 C 53.249 107.010,46.445 117.741,45.328 118.897 C 44.859 119.382,44.345 118.853,42.787 116.282 L 41.873 114.774 43.984 112.490 C 45.586 110.757,46.068 110.057,45.982 109.586 C 45.814 108.658,48.104 106.191,51.557 103.581 L 54.483 101.370 54.791 102.340 C 55.037 103.116,55.016 103.476,54.685 104.138 M56.540 107.793 C 57.775 110.845,59.603 114.122,62.733 118.894 L 65.888 123.704 64.659 124.236 L 63.429 124.768 62.800 124.177 C 61.985 123.411,61.886 123.418,58.552 124.454 C 55.391 125.437,55.563 125.454,55.317 124.138 C 55.144 123.210,55.184 123.151,56.327 122.621 C 58.179 121.762,58.126 120.844,55.969 116.349 C 53.982 112.209,53.863 111.350,54.842 108.207 C 55.593 105.794,55.719 105.764,56.540 107.793 M53.054 109.845 L 52.559 110.759 52.461 109.931 C 52.407 109.476,52.592 108.676,52.871 108.153 L 53.379 107.202 53.464 108.066 C 53.511 108.541,53.327 109.342,53.054 109.845 M165.517 112.690 L 165.517 116.690 160.138 116.690 L 154.759 116.690 154.759 112.690 L 154.759 108.690 160.138 108.690 L 165.517 108.690 165.517 112.690 M249.931 112.691 L 249.931 116.691 209.586 116.622 L 169.241 116.552 169.165 112.621 L 169.088 108.690 209.510 108.690 L 249.931 108.690 249.931 112.691 M263.663 112.621 L 263.586 116.552 258.552 116.627 L 253.517 116.702 253.517 112.696 L 253.517 108.690 258.628 108.690 L 263.739 108.690 263.663 112.621 M51.661 112.541 C 51.255 113.230,50.711 114.228,50.451 114.759 C 49.805 116.076,46.277 119.840,45.829 119.690 C 45.589 119.610,46.571 117.915,48.732 114.681 C 51.752 110.159,52.012 109.848,52.197 110.541 C 52.348 111.104,52.215 111.600,51.661 112.541 M53.466 111.567 C 53.226 112.688,53.129 112.835,52.899 112.424 C 52.698 112.065,52.749 111.662,53.081 110.964 C 53.687 109.694,53.820 109.903,53.466 111.567 M52.685 113.440 C 52.690 113.989,51.420 116.966,51.181 116.966 C 50.450 116.966,50.537 115.424,51.353 113.893 C 52.199 112.306,52.674 112.144,52.685 113.440 M54.830 120.552 L 54.748 121.517 54.408 120.414 C 53.754 118.287,53.160 114.291,53.378 113.483 C 53.640 112.510,54.966 118.963,54.830 120.552 M57.379 120.856 C 57.379 121.695,57.004 122.083,55.929 122.353 L 55.172 122.543 55.163 120.513 C 55.157 119.396,54.976 117.676,54.759 116.690 C 54.088 113.642,54.290 113.693,55.862 116.966 C 56.697 118.703,57.379 120.454,57.379 120.856 M53.364 117.432 C 53.577 118.643,53.959 120.348,54.213 121.222 L 54.675 122.810 53.906 123.612 C 52.878 124.685,52.780 124.646,52.279 122.966 C 51.241 119.481,51.176 118.040,51.987 116.440 C 52.880 114.677,52.880 114.676,53.364 117.432 M50.390 117.912 C 50.190 118.433,49.379 118.493,49.379 117.986 C 49.379 117.789,49.528 117.479,49.710 117.297 C 50.130 116.876,50.618 117.318,50.390 117.912 M274.069 161.587 L 274.069 202.760 225.753 202.828 C 171.803 202.905,176.276 202.734,176.276 204.717 C 176.276 206.463,172.674 206.345,225.700 206.345 C 256.332 206.345,273.958 206.442,274.063 206.611 C 274.707 207.652,272.397 212.784,270.374 214.807 C 267.153 218.028,266.312 218.200,253.724 218.204 C 248.148 218.205,243.586 218.259,243.586 218.322 C 243.586 218.385,245.107 219.933,246.966 221.760 L 250.345 225.083 250.426 236.113 C 250.503 246.626,250.531 247.150,251.025 247.307 C 255.020 248.575,254.400 255.419,250.176 256.673 C 244.687 258.303,241.180 250.274,246.200 247.570 L 247.172 247.047 247.172 236.692 L 247.172 226.338 243.100 222.272 L 239.028 218.207 234.548 218.207 C 232.085 218.207,230.069 218.299,230.069 218.411 C 230.069 218.523,232.148 220.697,234.690 223.241 L 239.310 227.867 239.448 229.718 C 239.583 231.527,239.612 231.586,240.735 232.338 C 244.901 235.130,242.915 241.556,237.905 241.498 C 232.732 241.438,231.060 235.049,235.469 232.194 C 237.029 231.184,236.844 229.785,234.895 227.861 L 233.377 226.361 230.206 229.545 L 227.034 232.728 227.034 237.733 C 227.034 243.155,226.989 243.310,225.413 243.310 C 224.186 243.310,224.000 242.455,224.000 236.807 L 224.000 231.531 227.629 227.882 L 231.258 224.233 228.250 221.215 L 225.242 218.198 218.133 218.271 L 211.023 218.345 211.020 231.862 C 211.017 244.183,211.058 245.404,211.476 245.655 C 215.693 248.186,215.271 253.982,210.784 255.171 C 206.528 256.298,202.966 251.920,204.959 248.012 C 205.476 247.000,206.799 245.793,207.392 245.793 C 207.948 245.793,208.000 244.663,208.000 232.667 C 208.000 218.578,208.245 219.446,205.171 222.621 L 203.034 224.828 203.034 232.599 C 203.034 241.034,202.974 241.379,201.490 241.379 C 200.083 241.379,200.000 240.844,200.000 231.773 L 200.000 223.392 202.483 220.891 C 203.848 219.515,204.966 218.348,204.966 218.298 C 204.966 218.248,202.454 218.207,199.384 218.207 L 193.803 218.207 190.970 221.030 C 189.412 222.582,188.138 223.984,188.138 224.145 C 188.138 224.306,189.690 225.990,191.586 227.886 L 195.034 231.335 195.034 236.889 C 195.034 242.901,194.938 243.310,193.517 243.310 C 192.124 243.310,192.000 242.842,192.000 237.590 L 192.000 232.736 188.824 229.541 L 185.648 226.345 184.134 227.907 C 182.144 229.961,182.039 231.055,183.724 232.171 C 188.036 235.024,186.186 241.515,181.060 241.517 C 176.063 241.518,174.279 235.416,178.401 232.423 C 179.542 231.594,179.553 231.570,179.569 229.810 L 179.586 228.035 184.473 223.121 L 189.359 218.207 184.683 218.207 L 180.007 218.207 175.934 222.272 L 171.862 226.338 171.862 236.598 L 171.862 246.859 172.759 247.478 C 175.079 249.082,175.840 251.047,175.045 253.385 C 172.982 259.454,164.312 257.075,165.384 250.734 C 165.569 249.637,167.319 247.417,168.219 247.137 C 168.504 247.049,168.573 244.916,168.559 236.649 C 168.537 224.491,168.225 225.752,172.250 221.746 C 174.009 219.995,175.448 218.482,175.448 218.384 C 175.448 218.287,170.886 218.205,165.310 218.204 C 152.793 218.200,151.922 218.026,148.761 214.915 C 147.462 213.636,145.379 210.082,145.379 209.143 C 145.379 208.915,147.147 208.828,151.742 208.828 C 157.977 208.828,158.967 208.708,159.513 207.890 C 159.624 207.723,159.718 193.174,159.720 175.560 L 159.724 143.534 159.144 143.008 C 158.613 142.527,157.998 142.476,151.849 142.400 L 145.134 142.318 145.050 138.721 C 145.003 136.743,145.017 135.073,145.080 135.011 C 145.144 134.948,164.823 134.897,188.812 134.897 C 237.192 134.897,233.655 135.037,233.655 133.120 C 233.655 131.172,237.194 131.320,188.651 131.242 L 145.004 131.172 144.884 126.143 C 144.818 123.377,144.837 120.925,144.926 120.694 C 145.069 120.320,152.066 120.282,209.578 120.344 L 274.069 120.414 274.069 161.587 M50.911 122.888 C 51.413 124.090,51.409 124.429,50.899 123.756 C 50.541 123.282,50.520 123.326,50.668 124.239 C 50.854 125.384,50.640 125.485,49.765 124.664 C 49.126 124.063,49.282 122.658,50.045 122.142 C 50.480 121.848,50.474 121.844,50.911 122.888 M55.003 124.464 C 55.241 125.653,54.272 126.289,53.550 125.418 C 53.312 125.132,53.374 124.872,53.812 124.315 C 54.557 123.367,54.790 123.396,55.003 124.464 M25.316 127.274 C 25.882 127.634,27.273 128.762,28.407 129.782 C 29.542 130.802,30.799 131.807,31.201 132.015 C 32.259 132.562,32.434 133.252,31.669 133.860 C 30.456 134.823,25.780 137.862,23.586 139.112 C 22.372 139.804,18.851 141.814,15.760 143.577 C 12.669 145.341,10.072 146.716,9.989 146.633 C 9.818 146.461,9.879 146.388,13.704 142.207 C 16.648 138.988,16.953 138.524,18.064 135.572 C 18.951 133.217,19.166 132.966,20.292 132.966 C 22.126 132.966,22.621 132.576,22.621 131.128 C 22.621 129.399,23.412 126.621,23.904 126.621 C 24.115 126.621,24.750 126.915,25.316 127.274 M72.299 134.224 C 74.401 138.773,75.162 142.583,75.731 151.402 C 75.963 154.993,76.389 159.731,76.677 161.931 L 77.202 165.931 76.495 169.931 C 75.615 174.913,75.457 175.085,73.378 173.336 C 72.320 172.445,72.323 172.100,73.386 172.501 C 74.652 172.979,75.155 172.522,75.256 170.801 C 75.408 168.216,73.861 167.356,71.697 168.823 C 70.120 169.891,70.299 169.979,69.003 167.489 C 67.382 164.373,67.057 162.800,66.768 156.690 C 66.608 153.318,66.350 150.744,66.075 149.793 C 65.549 147.977,65.394 137.890,65.873 136.627 C 66.032 136.206,66.230 135.548,66.313 135.164 C 66.447 134.538,70.191 131.899,70.983 131.870 C 71.107 131.866,71.699 132.925,72.299 134.224 M156.194 150.380 C 156.246 153.194,156.174 154.869,155.998 154.936 C 155.845 154.995,151.748 155.010,146.894 154.969 L 138.069 154.897 137.992 150.771 C 137.950 148.502,137.977 146.484,138.053 146.288 C 138.161 146.006,140.074 145.931,147.151 145.931 L 156.112 145.931 156.194 150.380 M336.276 147.014 C 336.276 147.307,336.587 147.791,336.968 148.091 C 337.349 148.390,337.833 149.113,338.043 149.697 C 338.253 150.281,338.982 151.938,339.663 153.379 C 340.344 154.821,341.533 157.344,342.304 158.986 C 343.851 162.278,345.009 164.007,347.303 166.452 L 348.828 168.077 347.859 167.900 C 347.326 167.803,345.340 167.539,343.445 167.313 C 337.532 166.609,337.346 166.530,336.672 164.442 C 336.038 162.479,335.030 161.281,333.618 160.815 C 332.508 160.449,332.447 159.839,333.091 155.563 C 333.812 150.784,336.276 144.169,336.276 147.014 M207.465 153.666 C 198.224 155.007,194.554 167.136,201.372 173.807 L 203.034 175.435 203.034 183.261 C 203.034 193.008,202.285 192.001,209.539 191.996 C 216.917 191.990,216.276 192.864,216.276 182.806 L 216.276 175.231 217.875 173.597 C 224.596 166.728,220.934 155.191,211.550 153.669 C 209.616 153.355,209.610 153.355,207.465 153.666 M373.251 158.087 C 373.823 159.155,373.377 159.034,372.276 157.823 L 371.172 156.609 372.061 157.066 C 372.549 157.317,373.085 157.777,373.251 158.087 M156.276 163.034 L 156.276 167.448 147.103 167.448 L 137.931 167.448 137.931 163.034 L 137.931 158.621 147.103 158.621 L 156.276 158.621 156.276 163.034 M354.374 162.897 C 354.091 163.801,353.655 164.213,353.655 163.577 C 353.655 163.315,354.460 161.931,354.611 161.931 C 354.647 161.931,354.540 162.366,354.374 162.897 M334.345 167.388 C 334.724 167.468,336.152 168.327,337.517 169.298 C 341.205 171.919,343.603 172.988,350.723 175.182 C 351.159 175.316,352.463 175.356,353.620 175.271 L 355.724 175.116 356.765 176.197 C 357.607 177.072,357.856 177.589,358.074 178.914 C 358.528 181.687,358.608 181.591,356.502 180.799 C 353.140 179.534,349.296 178.736,345.741 178.565 L 342.379 178.404 341.525 179.202 C 340.940 179.750,340.489 180.606,340.090 181.931 C 338.895 185.895,337.400 188.159,336.544 187.302 C 335.941 186.700,335.567 186.619,335.310 187.034 C 334.891 187.714,334.687 187.134,334.510 184.759 C 334.406 183.355,334.027 179.538,333.669 176.276 C 332.538 165.969,332.584 166.794,333.155 167.034 C 333.430 167.149,333.966 167.309,334.345 167.388 M78.342 171.490 C 78.775 173.439,79.588 176.586,80.149 178.483 C 80.710 180.379,81.230 182.206,81.305 182.543 C 81.452 183.209,81.059 183.811,75.608 191.264 C 73.851 193.666,72.383 195.466,72.345 195.264 C 72.225 194.632,74.682 181.957,74.940 181.870 C 77.800 180.917,78.681 178.979,76.986 177.367 C 75.489 175.944,75.460 175.058,76.897 174.677 L 77.931 174.402 77.005 174.373 C 76.192 174.348,76.095 174.269,76.219 173.724 C 76.296 173.383,76.580 171.895,76.850 170.418 C 77.120 168.941,77.389 167.780,77.448 167.838 C 77.506 167.897,77.908 169.540,78.342 171.490 M74.861 169.877 C 75.515 172.155,74.261 172.761,71.955 171.282 C 70.419 170.296,70.400 170.242,71.334 169.562 C 73.393 168.063,74.366 168.149,74.861 169.877 M156.161 171.149 C 156.224 171.211,156.239 173.260,156.194 175.700 L 156.112 180.138 147.021 180.138 L 137.931 180.138 137.931 175.770 C 137.931 173.368,138.014 171.320,138.115 171.218 C 138.310 171.023,155.966 170.955,156.161 171.149 M72.863 173.424 C 73.071 173.676,73.769 174.117,74.414 174.403 C 75.643 174.948,75.730 175.070,75.335 175.694 C 75.028 176.179,73.103 174.879,72.418 173.724 C 71.929 172.899,72.250 172.682,72.863 173.424 M360.276 179.557 C 360.276 179.672,359.982 180.042,359.622 180.380 L 358.968 180.994 358.798 180.359 C 358.705 180.010,358.627 179.374,358.624 178.947 L 358.621 178.169 359.448 178.759 C 359.903 179.083,360.276 179.442,360.276 179.557 M361.103 182.379 C 361.103 182.512,360.917 182.621,360.690 182.621 C 360.452 182.621,360.276 182.372,360.276 182.035 C 360.276 181.546,360.344 181.506,360.690 181.793 C 360.917 181.982,361.103 182.245,361.103 182.379 M156.161 183.838 C 156.224 183.901,156.239 185.918,156.194 188.321 L 156.113 192.690 147.091 192.629 L 138.069 192.568 137.993 188.146 L 137.917 183.724 146.982 183.724 C 151.967 183.724,156.098 183.776,156.161 183.838 M156.194 200.587 C 156.246 203.401,156.174 205.076,155.998 205.143 C 155.845 205.201,151.748 205.216,146.894 205.176 L 138.069 205.103 137.992 200.978 C 137.950 198.708,137.977 196.691,138.053 196.495 C 138.161 196.213,140.074 196.138,147.151 196.138 L 156.112 196.138 156.194 200.587 M180.419 234.687 C 178.438 235.464,178.959 238.345,181.081 238.345 C 181.985 238.345,182.772 237.758,182.929 236.966 C 183.237 235.414,181.827 234.134,180.419 234.687 M236.885 235.039 C 235.438 236.176,236.145 238.356,237.953 238.336 C 239.159 238.323,239.834 237.680,239.834 236.546 C 239.834 234.830,238.207 233.999,236.885 235.039 M300.103 248.837 L 302.876 250.225 304.542 249.384 C 305.457 248.922,306.207 248.588,306.207 248.642 C 306.207 248.697,305.954 249.474,305.644 250.371 C 304.163 254.656,302.946 259.573,302.783 261.931 C 302.689 263.297,302.470 266.152,302.296 268.276 L 301.981 272.138 300.911 273.171 C 299.861 274.186,299.834 274.263,299.410 277.447 C 298.932 281.043,298.528 281.985,295.807 285.862 C 294.045 288.373,294.299 288.311,292.502 286.673 L 291.073 285.370 292.163 277.651 C 292.762 273.405,293.940 265.028,294.780 259.034 C 295.620 253.041,296.359 247.983,296.421 247.793 C 296.610 247.218,297.210 247.388,300.103 248.837 M208.178 248.952 C 206.311 250.682,208.585 253.414,210.583 251.842 C 211.960 250.759,211.124 248.276,209.382 248.276 C 209.122 248.276,208.580 248.580,208.178 248.952 M168.832 250.678 C 167.412 252.483,169.627 254.693,171.525 253.364 C 172.387 252.760,172.387 250.964,171.525 250.360 C 170.575 249.695,169.506 249.821,168.832 250.678 M247.500 250.494 C 246.739 251.203,246.714 252.507,247.448 253.241 C 248.183 253.976,249.487 253.951,250.196 253.189 C 251.860 251.403,249.287 248.829,247.500 250.494 M293.944 257.724 C 293.861 258.217,293.050 264.145,292.141 270.897 C 290.035 286.547,290.316 285.043,289.573 284.647 C 287.445 283.513,282.341 277.382,282.059 275.622 C 281.971 275.071,281.725 274.142,281.512 273.557 C 280.117 269.723,286.178 260.372,291.854 257.600 C 293.894 256.604,294.129 256.618,293.944 257.724 M57.103 283.836 C 57.103 284.778,57.034 284.896,56.552 284.770 C 55.890 284.597,55.890 284.599,56.421 283.573 C 56.977 282.497,57.103 282.545,57.103 283.836 M290.898 296.345 C 290.540 296.990,290.034 298.076,289.772 298.759 C 289.004 300.762,288.891 300.590,289.278 298.012 C 289.479 296.678,289.646 295.493,289.649 295.379 C 289.652 295.266,290.081 295.172,290.601 295.172 L 291.547 295.172 290.898 296.345 M288.416 308.598 C 288.303 309.520,288.089 310.082,287.808 310.189 C 287.444 310.329,287.402 310.189,287.546 309.316 C 287.640 308.744,287.874 307.221,288.066 305.931 L 288.414 303.586 288.502 305.379 C 288.550 306.366,288.512 307.814,288.416 308.598 M163.030 331.517 C 163.033 331.859,162.910 332.138,162.759 332.138 C 162.607 332.138,162.485 331.672,162.487 331.103 C 162.490 330.334,162.560 330.175,162.759 330.483 C 162.906 330.710,163.028 331.176,163.030 331.517 M162.368 338.276 C 162.855 338.842,162.894 339.266,162.810 343.104 L 162.719 347.311 161.980 347.143 C 161.574 347.050,160.592 346.553,159.797 346.039 C 159.003 345.524,158.161 345.103,157.927 345.103 C 157.356 345.103,157.126 344.428,157.486 343.810 C 157.646 343.535,157.780 343.466,157.785 343.655 C 157.800 344.282,158.212 344.014,158.739 343.034 C 159.315 341.966,159.627 341.823,159.795 342.552 C 159.894 342.982,160.230 342.005,161.123 338.690 C 161.446 337.490,161.638 337.426,162.368 338.276 M165.350 341.363 C 166.120 342.686,167.448 346.287,167.448 347.051 C 167.448 347.528,167.247 347.586,165.586 347.582 C 162.836 347.576,162.932 347.756,163.167 343.045 L 163.370 338.994 164.034 339.618 C 164.399 339.961,164.992 340.746,165.350 341.363 M162.483 357.241 L 162.483 360.552 161.417 360.552 C 159.778 360.552,159.566 358.691,160.969 356.609 C 161.498 355.823,161.931 354.899,161.931 354.555 C 161.931 354.212,162.055 353.931,162.207 353.931 C 162.375 353.931,162.483 355.218,162.483 357.241 M152.345 386.616 C 153.279 387.438,153.498 390.487,152.647 390.813 C 151.774 391.148,151.172 389.931,151.172 387.832 C 151.172 385.730,151.249 385.651,152.345 386.616 " stroke="none" fill="#e4e4e4" fill-rule="evenodd"></path><path id="path1" d="M150.644 38.240 C 151.011 38.713,151.366 39.050,151.434 38.990 C 151.501 38.929,151.202 38.542,150.768 38.130 L 149.978 37.379 150.644 38.240 M372.276 157.517 C 372.182 157.669,372.144 157.803,372.191 157.814 C 373.099 158.039,373.253 158.002,372.947 157.633 C 372.561 157.167,372.499 157.157,372.276 157.517 M356.552 176.276 C 357.144 176.883,357.691 177.379,357.767 177.379 C 357.843 177.379,357.420 176.883,356.828 176.276 C 356.235 175.669,355.688 175.172,355.612 175.172 C 355.536 175.172,355.959 175.669,356.552 176.276 M47.569 224.069 L 46.759 224.966 47.655 224.155 C 48.491 223.400,48.679 223.172,48.465 223.172 C 48.418 223.172,48.014 223.576,47.569 224.069 M97.379 312.690 C 97.894 313.221,98.377 313.655,98.453 313.655 C 98.529 313.655,98.170 313.221,97.655 312.690 C 97.140 312.159,96.657 311.724,96.581 311.724 C 96.506 311.724,96.865 312.159,97.379 312.690 M285.918 337.172 L 284.828 338.345 286.000 337.254 C 287.090 336.240,287.299 336.000,287.090 336.000 C 287.045 336.000,286.518 336.528,285.918 337.172 M169.931 402.293 C 169.931 402.341,170.334 402.744,170.828 403.190 L 171.724 404.000 170.914 403.103 C 170.159 402.268,169.931 402.080,169.931 402.293 " stroke="none" fill="#949494" fill-rule="evenodd"></path><path id="path2" d="M234.823 5.517 C 234.823 6.048,234.879 6.266,234.949 6.000 C 235.018 5.734,235.018 5.300,234.949 5.034 C 234.879 4.769,234.823 4.986,234.823 5.517 M235.354 8.598 C 235.330 9.003,235.230 9.562,235.132 9.840 C 234.995 10.227,235.032 10.273,235.290 10.035 C 235.479 9.861,235.576 9.317,235.513 8.794 C 235.420 8.036,235.390 8.000,235.354 8.598 M216.064 14.345 C 216.064 14.876,216.121 15.093,216.190 14.828 C 216.260 14.562,216.260 14.128,216.190 13.862 C 216.121 13.597,216.064 13.814,216.064 14.345 M318.492 23.714 C 318.061 24.164,317.624 24.480,317.521 24.416 C 317.418 24.352,317.333 24.486,317.333 24.713 C 317.333 24.972,317.728 24.740,318.391 24.093 C 318.972 23.525,319.448 23.024,319.448 22.978 C 319.448 22.778,319.224 22.951,318.492 23.714 M354.417 23.919 C 354.760 23.985,355.257 23.983,355.520 23.914 C 355.784 23.845,355.503 23.791,354.897 23.794 C 354.290 23.797,354.074 23.853,354.417 23.919 M171.389 40.138 C 171.391 40.897,171.445 41.174,171.508 40.755 C 171.572 40.336,171.570 39.715,171.505 39.376 C 171.439 39.036,171.387 39.379,171.389 40.138 M130.282 47.448 C 130.282 48.131,130.336 48.410,130.402 48.069 C 130.467 47.728,130.467 47.169,130.402 46.828 C 130.336 46.486,130.282 46.766,130.282 47.448 M342.966 62.207 C 342.969 62.814,343.026 63.030,343.092 62.686 C 343.158 62.343,343.155 61.847,343.086 61.583 C 343.017 61.319,342.963 61.600,342.966 62.207 M40.368 75.437 C 40.368 75.659,40.875 76.310,41.494 76.885 L 42.621 77.931 41.598 76.828 C 41.035 76.221,40.580 75.621,40.586 75.494 C 40.592 75.368,40.546 75.213,40.483 75.149 C 40.420 75.086,40.368 75.216,40.368 75.437 M35.793 78.547 C 36.438 78.605,37.493 78.605,38.138 78.547 C 38.783 78.489,38.255 78.441,36.966 78.441 C 35.676 78.441,35.148 78.489,35.793 78.547 M36.345 79.643 C 36.686 79.709,37.245 79.709,37.586 79.643 C 37.928 79.577,37.648 79.523,36.966 79.523 C 36.283 79.523,36.003 79.577,36.345 79.643 M65.748 141.793 C 65.748 142.931,65.797 143.397,65.856 142.828 C 65.916 142.259,65.916 141.328,65.856 140.759 C 65.797 140.190,65.748 140.655,65.748 141.793 M2.010 159.034 C 2.012 159.793,2.066 160.071,2.129 159.651 C 2.192 159.232,2.191 158.611,2.125 158.272 C 2.060 157.933,2.008 158.276,2.010 159.034 M66.823 158.897 C 66.823 159.428,66.879 159.645,66.949 159.379 C 67.018 159.114,67.018 158.679,66.949 158.414 C 66.879 158.148,66.823 158.366,66.823 158.897 M359.472 180.243 L 358.806 181.103 359.595 180.353 C 360.029 179.941,360.329 179.553,360.261 179.493 C 360.193 179.433,359.838 179.770,359.472 180.243 M384.616 201.931 C 384.616 202.462,384.672 202.679,384.742 202.414 C 384.811 202.148,384.811 201.714,384.742 201.448 C 384.672 201.183,384.616 201.400,384.616 201.931 M352.070 226.621 C 352.073 227.228,352.129 227.443,352.195 227.100 C 352.261 226.757,352.259 226.261,352.190 225.997 C 352.120 225.733,352.067 226.014,352.070 226.621 M360.616 232.000 C 360.616 232.531,360.672 232.748,360.742 232.483 C 360.811 232.217,360.811 231.783,360.742 231.517 C 360.672 231.252,360.616 231.469,360.616 232.000 M112.351 256.276 C 112.351 256.959,112.405 257.238,112.471 256.897 C 112.536 256.555,112.536 255.997,112.471 255.655 C 112.405 255.314,112.351 255.593,112.351 256.276 M127.518 268.276 C 127.521 268.883,127.577 269.099,127.643 268.755 C 127.709 268.412,127.707 267.916,127.638 267.652 C 127.569 267.388,127.515 267.669,127.518 268.276 M164.496 286.897 C 164.496 287.731,164.548 288.072,164.611 287.655 C 164.675 287.238,164.675 286.555,164.611 286.138 C 164.548 285.721,164.496 286.062,164.496 286.897 M163.945 292.414 C 163.945 293.248,163.996 293.590,164.060 293.172 C 164.123 292.755,164.123 292.072,164.060 291.655 C 163.996 291.238,163.945 291.579,163.945 292.414 M164.221 298.483 C 164.221 299.317,164.272 299.659,164.336 299.241 C 164.399 298.824,164.399 298.141,164.336 297.724 C 164.272 297.307,164.221 297.648,164.221 298.483 M163.669 303.724 C 163.669 304.559,163.721 304.900,163.784 304.483 C 163.847 304.066,163.847 303.383,163.784 302.966 C 163.721 302.548,163.669 302.890,163.669 303.724 M163.945 310.069 C 163.945 310.903,163.996 311.245,164.060 310.828 C 164.123 310.410,164.123 309.728,164.060 309.310 C 163.996 308.893,163.945 309.234,163.945 310.069 M163.393 315.310 C 163.393 316.145,163.445 316.486,163.508 316.069 C 163.571 315.652,163.571 314.969,163.508 314.552 C 163.445 314.134,163.393 314.476,163.393 315.310 M50.828 315.172 C 50.831 315.779,50.888 315.995,50.954 315.652 C 51.020 315.309,51.017 314.812,50.948 314.549 C 50.879 314.285,50.825 314.566,50.828 315.172 M231.531 315.586 C 231.531 316.421,231.583 316.762,231.646 316.345 C 231.709 315.928,231.709 315.245,231.646 314.828 C 231.583 314.410,231.531 314.752,231.531 315.586 M230.696 317.241 C 230.696 317.924,230.750 318.203,230.815 317.862 C 230.881 317.521,230.881 316.962,230.815 316.621 C 230.750 316.279,230.696 316.559,230.696 317.241 M163.669 321.379 C 163.669 322.214,163.721 322.555,163.784 322.138 C 163.847 321.721,163.847 321.038,163.784 320.621 C 163.721 320.203,163.669 320.545,163.669 321.379 M288.681 334.414 L 287.034 336.138 288.759 334.491 C 290.360 332.962,290.609 332.690,290.405 332.690 C 290.362 332.690,289.587 333.466,288.681 334.414 M163.120 344.414 C 163.122 345.324,163.173 345.663,163.234 345.167 C 163.296 344.672,163.295 343.927,163.232 343.512 C 163.169 343.098,163.118 343.503,163.120 344.414 M71.512 348.138 C 71.512 348.669,71.569 348.886,71.638 348.621 C 71.708 348.355,71.708 347.921,71.638 347.655 C 71.569 347.390,71.512 347.607,71.512 348.138 M71.534 351.862 C 71.535 352.772,71.587 353.112,71.648 352.616 C 71.710 352.120,71.708 351.375,71.645 350.961 C 71.582 350.546,71.532 350.952,71.534 351.862 M162.841 355.862 C 162.841 356.697,162.893 357.038,162.956 356.621 C 163.019 356.203,163.019 355.521,162.956 355.103 C 162.893 354.686,162.841 355.028,162.841 355.862 M84.202 366.621 C 84.202 367.152,84.259 367.369,84.328 367.103 C 84.397 366.838,84.397 366.403,84.328 366.138 C 84.259 365.872,84.202 366.090,84.202 366.621 M168.264 400.621 C 169.407 401.839,169.655 402.058,169.655 401.851 C 169.655 401.806,169.066 401.217,168.345 400.540 L 167.034 399.310 168.264 400.621 M171.672 407.310 C 171.673 408.221,171.725 408.560,171.786 408.064 C 171.848 407.568,171.846 406.823,171.783 406.409 C 171.720 405.994,171.670 406.400,171.672 407.310 M196.483 411.448 C 196.486 412.055,196.543 412.271,196.609 411.928 C 196.675 411.585,196.672 411.088,196.603 410.824 C 196.534 410.561,196.480 410.841,196.483 411.448 M179.034 425.793 C 179.549 426.324,180.032 426.759,180.108 426.759 C 180.184 426.759,179.825 426.324,179.310 425.793 C 178.796 425.262,178.312 424.828,178.237 424.828 C 178.161 424.828,178.520 425.262,179.034 425.793 M191.241 438.811 C 191.507 438.880,191.941 438.880,192.207 438.811 C 192.472 438.741,192.255 438.685,191.724 438.685 C 191.193 438.685,190.976 438.741,191.241 438.811 " stroke="none" fill="#acacac" fill-rule="evenodd"></path><path id="path3" d="M235.098 8.000 C 235.098 8.531,235.155 8.748,235.225 8.483 C 235.294 8.217,235.294 7.783,235.225 7.517 C 235.155 7.252,235.098 7.469,235.098 8.000 M152.248 37.379 C 152.400 37.683,152.847 38.303,153.242 38.759 C 153.637 39.214,153.836 39.338,153.683 39.034 C 153.531 38.731,153.084 38.110,152.689 37.655 C 152.294 37.200,152.095 37.076,152.248 37.379 M122.262 51.641 C 121.873 52.031,121.829 52.414,122.175 52.414 C 122.309 52.414,122.483 52.166,122.563 51.862 C 122.731 51.218,122.705 51.199,122.262 51.641 M371.976 157.328 C 372.249 157.527,372.718 157.993,373.018 158.362 C 373.319 158.732,373.474 158.848,373.362 158.621 C 373.044 157.972,372.071 156.966,371.761 156.966 C 371.607 156.966,371.704 157.129,371.976 157.328 " stroke="none" fill="#535353" fill-rule="evenodd"></path><path id="path4" d="M135.817 43.034 C 135.817 44.172,135.866 44.638,135.925 44.069 C 135.985 43.500,135.985 42.569,135.925 42.000 C 135.866 41.431,135.817 41.897,135.817 43.034 M111.807 56.828 C 111.807 57.662,111.859 58.003,111.922 57.586 C 111.985 57.169,111.985 56.486,111.922 56.069 C 111.859 55.652,111.807 55.993,111.807 56.828 M66.844 156.552 C 66.846 157.462,66.897 157.801,66.959 157.305 C 67.020 156.810,67.019 156.065,66.956 155.650 C 66.893 155.236,66.843 155.641,66.844 156.552 M343.517 178.404 C 343.934 178.468,344.617 178.468,345.034 178.404 C 345.452 178.341,345.110 178.290,344.276 178.290 C 343.441 178.290,343.100 178.341,343.517 178.404 M288.189 305.862 C 288.123 305.976,288.169 306.317,288.291 306.621 C 288.485 307.102,288.515 307.076,288.532 306.414 C 288.551 305.665,288.422 305.458,288.189 305.862 M165.310 347.508 C 165.728 347.571,166.410 347.571,166.828 347.508 C 167.245 347.445,166.903 347.393,166.069 347.393 C 165.234 347.393,164.893 347.445,165.310 347.508 M162.290 358.345 C 162.290 359.179,162.341 359.521,162.404 359.103 C 162.468 358.686,162.468 358.003,162.404 357.586 C 162.341 357.169,162.290 357.510,162.290 358.345 " stroke="none" fill="#747474" fill-rule="evenodd"></path></g></svg>